<svg width="289" height="289" viewBox="0 0 289 289" fill="none" xmlns="http://www.w3.org/2000/svg">
<mask id="mask0_85_1586" style="mask-type:alpha" maskUnits="userSpaceOnUse" x="0" y="0" width="289" height="289">
<circle cx="144.5" cy="144.5" r="144.5" fill="#33384C"/>
<circle cx="144.5" cy="144.5" r="143.5" stroke="#242739" stroke-opacity="0.8" stroke-width="2"/>
</mask>
<g mask="url(#mask0_85_1586)">
<g filter="url(#filter0_i_85_1586)">
<circle cx="144.5" cy="144.5" r="144.5" fill="#2B3041"/>
</g>
<circle cx="144.5" cy="144.5" r="143.5" stroke="#242739" stroke-opacity="0.8" stroke-width="2"/>
</g>
<g filter="url(#filter1_i_85_1586)">
<path d="M195.227 9.15479L167.482 74H129.744L95.501 8.51935C110.801 3.00526 127.299 0 144.5 0C162.35 0 179.444 3.23654 195.227 9.15479Z" fill="url(#paint0_linear_85_1586)" fill-opacity="0.9"/>
</g>
<path d="M144.5 0.5C162.104 0.5 178.97 3.6588 194.561 9.44011L167.152 73.5H130.047L96.2101 8.79647C111.305 3.42477 127.56 0.5 144.5 0.5Z" stroke="#1E2133" stroke-opacity="0.75"/>
<g filter="url(#filter2_i_85_1586)">
<circle cx="144.499" cy="144.5" r="97.7152" fill="#25293B"/>
</g>
<g filter="url(#filter3_i_85_1586)">
<path d="M125.586 26.21C125.586 26.9482 125.46 27.6221 125.208 28.2314C124.956 28.8408 124.614 29.3652 124.18 29.8047C123.746 30.2383 123.237 30.5752 122.651 30.8154C122.071 31.0557 121.447 31.1758 120.779 31.1758C120.117 31.1758 119.493 31.0527 118.907 30.8066C118.327 30.5605 117.817 30.2178 117.377 29.7783C116.944 29.3389 116.601 28.8174 116.349 28.2139C116.097 27.6045 115.971 26.9365 115.971 26.21V17.8428H118.379V22.2373C118.508 22.0732 118.663 21.9268 118.845 21.7979C119.033 21.6689 119.232 21.5635 119.443 21.4814C119.66 21.3994 119.882 21.3379 120.111 21.2969C120.339 21.25 120.562 21.2266 120.779 21.2266C121.447 21.2266 122.071 21.3525 122.651 21.6045C123.237 21.8506 123.746 22.1963 124.18 22.6416C124.614 23.0869 124.956 23.6143 125.208 24.2236C125.46 24.8271 125.586 25.4893 125.586 26.21ZM123.169 26.21C123.169 25.8467 123.105 25.5098 122.976 25.1992C122.853 24.8828 122.683 24.6104 122.466 24.3818C122.249 24.1533 121.995 23.9746 121.702 23.8457C121.414 23.7168 121.107 23.6523 120.779 23.6523C120.451 23.6523 120.14 23.7256 119.847 23.8721C119.56 24.0127 119.308 24.2031 119.091 24.4434C118.874 24.6777 118.704 24.9502 118.581 25.2607C118.458 25.5654 118.397 25.8818 118.397 26.21C118.397 26.5732 118.458 26.9102 118.581 27.2207C118.704 27.5312 118.874 27.8008 119.091 28.0293C119.308 28.2578 119.56 28.4395 119.847 28.5742C120.14 28.7031 120.451 28.7676 120.779 28.7676C121.107 28.7676 121.414 28.7031 121.702 28.5742C121.995 28.4395 122.249 28.2578 122.466 28.0293C122.683 27.8008 122.853 27.5312 122.976 27.2207C123.105 26.9102 123.169 26.5732 123.169 26.21ZM129.55 34.5859V32.1689L130.886 32.1865C131.12 32.1865 131.346 32.1484 131.563 32.0723C131.779 31.9961 131.979 31.8906 132.16 31.7559C132.348 31.6211 132.512 31.46 132.652 31.2725C132.793 31.0908 132.907 30.8916 132.995 30.6748C132.731 30.7861 132.462 30.8975 132.187 31.0088C131.917 31.1201 131.645 31.1758 131.369 31.1758C130.789 31.1758 130.244 31.0732 129.734 30.8682C129.225 30.6631 128.776 30.373 128.39 29.998C128.009 29.6172 127.707 29.1572 127.484 28.6182C127.268 28.0732 127.159 27.4639 127.159 26.79V21.5869H129.55V26.79C129.55 27.124 129.597 27.417 129.69 27.6689C129.79 27.915 129.922 28.123 130.086 28.293C130.25 28.457 130.44 28.5801 130.657 28.6621C130.88 28.7441 131.117 28.7852 131.369 28.7852C131.615 28.7852 131.847 28.7295 132.064 28.6182C132.286 28.501 132.48 28.3486 132.644 28.1611C132.808 27.9736 132.937 27.7627 133.03 27.5283C133.124 27.2881 133.171 27.042 133.171 26.79V21.5869H135.588V29.8135C135.582 30.4756 135.453 31.0967 135.201 31.6768C134.949 32.2568 134.604 32.7637 134.164 33.1973C133.731 33.6309 133.224 33.9736 132.644 34.2256C132.064 34.4775 131.442 34.6035 130.78 34.6035L129.55 34.5859ZM140.202 34.5859H137.785V21.5869H138.365L139.323 22.7207C139.54 22.5156 139.777 22.3223 140.035 22.1406C140.293 21.959 140.559 21.8037 140.835 21.6748C141.116 21.54 141.406 21.4346 141.705 21.3584C142.004 21.2822 142.305 21.2441 142.61 21.2441C143.272 21.2441 143.893 21.3643 144.473 21.6045C145.059 21.8389 145.569 22.1729 146.003 22.6064C146.442 23.04 146.788 23.5645 147.04 24.1797C147.292 24.7891 147.418 25.4658 147.418 26.21C147.418 26.9834 147.292 27.6807 147.04 28.3018C146.788 28.917 146.442 29.4414 146.003 29.875C145.569 30.3027 145.059 30.6309 144.473 30.8594C143.893 31.0879 143.272 31.2021 142.61 31.2021C142.399 31.2021 142.188 31.1787 141.977 31.1318C141.772 31.085 141.567 31.0234 141.362 30.9473C141.163 30.8652 140.964 30.7744 140.764 30.6748C140.571 30.5752 140.383 30.4727 140.202 30.3672V34.5859ZM145.009 26.21C145.009 25.8115 144.945 25.4541 144.816 25.1377C144.693 24.8213 144.523 24.5547 144.306 24.3379C144.09 24.1152 143.835 23.9453 143.542 23.8281C143.249 23.7109 142.938 23.6523 142.61 23.6523C142.282 23.6523 141.971 23.7109 141.678 23.8281C141.391 23.9453 141.139 24.1152 140.923 24.3379C140.706 24.5547 140.533 24.8213 140.404 25.1377C140.281 25.4541 140.219 25.8115 140.219 26.21C140.219 26.5908 140.281 26.9395 140.404 27.2559C140.533 27.5723 140.706 27.8418 140.923 28.0645C141.139 28.2871 141.391 28.46 141.678 28.583C141.971 28.7061 142.282 28.7676 142.61 28.7676C142.938 28.7676 143.249 28.7061 143.542 28.583C143.835 28.46 144.09 28.2871 144.306 28.0645C144.523 27.8418 144.693 27.5723 144.816 27.2559C144.945 26.9395 145.009 26.5908 145.009 26.21ZM158.228 31H157.648L156.716 29.708C156.488 29.9131 156.244 30.1064 155.987 30.2881C155.735 30.4639 155.468 30.6191 155.187 30.7539C154.906 30.8828 154.616 30.9854 154.317 31.0615C154.024 31.1377 153.725 31.1758 153.42 31.1758C152.758 31.1758 152.134 31.0645 151.548 30.8418C150.968 30.6191 150.458 30.2969 150.019 29.875C149.585 29.4473 149.243 28.9258 148.991 28.3105C148.739 27.6953 148.613 26.9951 148.613 26.21C148.613 25.4775 148.739 24.8066 148.991 24.1973C149.243 23.582 149.585 23.0547 150.019 22.6152C150.458 22.1758 150.968 21.8359 151.548 21.5957C152.134 21.3496 152.758 21.2266 153.42 21.2266C153.725 21.2266 154.027 21.2646 154.326 21.3408C154.624 21.417 154.914 21.5225 155.196 21.6572C155.477 21.792 155.743 21.9502 155.995 22.1318C156.253 22.3135 156.493 22.5098 156.716 22.7207L157.648 21.6045H158.228V31ZM155.811 26.21C155.811 25.8818 155.746 25.5654 155.618 25.2607C155.494 24.9502 155.325 24.6777 155.108 24.4434C154.891 24.2031 154.636 24.0127 154.343 23.8721C154.056 23.7256 153.748 23.6523 153.42 23.6523C153.092 23.6523 152.782 23.708 152.489 23.8193C152.201 23.9307 151.95 24.0947 151.733 24.3115C151.522 24.5283 151.355 24.7979 151.232 25.1201C151.109 25.4365 151.047 25.7998 151.047 26.21C151.047 26.6201 151.109 26.9863 151.232 27.3086C151.355 27.625 151.522 27.8916 151.733 28.1084C151.95 28.3252 152.201 28.4893 152.489 28.6006C152.782 28.7119 153.092 28.7676 153.42 28.7676C153.748 28.7676 154.056 28.6973 154.343 28.5566C154.636 28.4102 154.891 28.2197 155.108 27.9854C155.325 27.7451 155.494 27.4727 155.618 27.168C155.746 26.8574 155.811 26.5381 155.811 26.21ZM165.593 31H160.108V28.6094H165.593C165.757 28.6094 165.897 28.5508 166.015 28.4336C166.132 28.3164 166.19 28.1758 166.19 28.0117C166.19 27.8418 166.132 27.7305 166.015 27.6777C165.897 27.625 165.757 27.5986 165.593 27.5986H163.097C162.681 27.5986 162.291 27.5195 161.928 27.3613C161.564 27.2031 161.248 26.9893 160.978 26.7197C160.709 26.4443 160.495 26.125 160.337 25.7617C160.185 25.3984 160.108 25.0088 160.108 24.5928C160.108 24.1768 160.185 23.7871 160.337 23.4238C160.495 23.0605 160.709 22.7441 160.978 22.4746C161.248 22.2051 161.564 21.9941 161.928 21.8418C162.291 21.6836 162.681 21.6045 163.097 21.6045H167.957V23.9951H163.097C162.933 23.9951 162.792 24.0537 162.675 24.1709C162.558 24.2881 162.499 24.4287 162.499 24.5928C162.499 24.7627 162.558 24.9092 162.675 25.0322C162.792 25.1494 162.933 25.208 163.097 25.208H165.593C166.003 25.208 166.39 25.2783 166.753 25.4189C167.116 25.5537 167.433 25.7441 167.702 25.9902C167.972 26.2363 168.186 26.5322 168.344 26.8779C168.502 27.2236 168.581 27.6016 168.581 28.0117C168.581 28.4277 168.502 28.8174 168.344 29.1807C168.186 29.5381 167.972 29.8545 167.702 30.1299C167.433 30.3994 167.116 30.6133 166.753 30.7715C166.39 30.9238 166.003 31 165.593 31ZM175.392 31H169.908V28.6094H175.392C175.556 28.6094 175.697 28.5508 175.814 28.4336C175.931 28.3164 175.99 28.1758 175.99 28.0117C175.99 27.8418 175.931 27.7305 175.814 27.6777C175.697 27.625 175.556 27.5986 175.392 27.5986H172.896C172.48 27.5986 172.09 27.5195 171.727 27.3613C171.364 27.2031 171.047 26.9893 170.778 26.7197C170.508 26.4443 170.295 26.125 170.136 25.7617C169.984 25.3984 169.908 25.0088 169.908 24.5928C169.908 24.1768 169.984 23.7871 170.136 23.4238C170.295 23.0605 170.508 22.7441 170.778 22.4746C171.047 22.2051 171.364 21.9941 171.727 21.8418C172.09 21.6836 172.48 21.6045 172.896 21.6045H177.756V23.9951H172.896C172.732 23.9951 172.591 24.0537 172.474 24.1709C172.357 24.2881 172.298 24.4287 172.298 24.5928C172.298 24.7627 172.357 24.9092 172.474 25.0322C172.591 25.1494 172.732 25.208 172.896 25.208H175.392C175.802 25.208 176.189 25.2783 176.552 25.4189C176.916 25.5537 177.232 25.7441 177.502 25.9902C177.771 26.2363 177.985 26.5322 178.143 26.8779C178.301 27.2236 178.38 27.6016 178.38 28.0117C178.38 28.4277 178.301 28.8174 178.143 29.1807C177.985 29.5381 177.771 29.8545 177.502 30.1299C177.232 30.3994 176.916 30.6133 176.552 30.7715C176.189 30.9238 175.802 31 175.392 31Z" fill="url(#paint1_linear_85_1586)"/>
</g>
<path d="M124.18 29.8047L124.251 29.8754L124.251 29.8749L124.18 29.8047ZM122.651 30.8154L122.613 30.7229L122.613 30.723L122.651 30.8154ZM118.907 30.8066L118.868 30.8987L118.868 30.8988L118.907 30.8066ZM117.377 29.7783L117.306 29.8486L117.307 29.849L117.377 29.7783ZM116.349 28.2139L116.257 28.2521L116.257 28.2524L116.349 28.2139ZM115.971 17.8428V17.7428H115.871V17.8428H115.971ZM118.379 17.8428H118.479V17.7428H118.379V17.8428ZM118.379 22.2373H118.279V22.5264L118.458 22.2991L118.379 22.2373ZM118.845 21.7979L118.788 21.7154L118.787 21.7163L118.845 21.7979ZM119.443 21.4814L119.407 21.3879L119.407 21.3882L119.443 21.4814ZM120.111 21.2969L120.128 21.3953L120.131 21.3948L120.111 21.2969ZM122.651 21.6045L122.611 21.6962L122.612 21.6967L122.651 21.6045ZM125.208 24.2236L125.116 24.2618L125.116 24.2622L125.208 24.2236ZM122.976 25.1992L122.883 25.2355L122.884 25.2376L122.976 25.1992ZM121.702 23.8457L121.661 23.9369L121.661 23.9372L121.702 23.8457ZM119.847 23.8721L119.891 23.9619L119.892 23.9615L119.847 23.8721ZM119.091 24.4434L119.165 24.5113L119.165 24.5104L119.091 24.4434ZM118.581 25.2607L118.674 25.2982L118.674 25.2976L118.581 25.2607ZM119.847 28.5742L119.805 28.6648L119.807 28.6658L119.847 28.5742ZM121.702 28.5742L121.743 28.6654L121.743 28.6651L121.702 28.5742ZM122.976 27.2207L122.884 27.1824L122.883 27.1839L122.976 27.2207ZM125.486 26.21C125.486 26.9367 125.362 27.5973 125.116 28.1932L125.301 28.2697C125.558 27.6468 125.686 26.9598 125.686 26.21H125.486ZM125.116 28.1932C124.869 28.7915 124.533 29.3048 124.109 29.7345L124.251 29.8749C124.695 29.4257 125.044 28.8902 125.301 28.2697L125.116 28.1932ZM124.109 29.734C123.685 30.1579 123.187 30.4875 122.613 30.7229L122.689 30.908C123.287 30.6629 123.808 30.3187 124.251 29.8754L124.109 29.734ZM122.613 30.723C122.045 30.9579 121.434 31.0758 120.779 31.0758V31.2758C121.459 31.2758 122.096 31.1534 122.689 30.9078L122.613 30.723ZM120.779 31.0758C120.129 31.0758 119.519 30.9552 118.945 30.7144L118.868 30.8988C119.467 31.1503 120.104 31.2758 120.779 31.2758V31.0758ZM118.946 30.7146C118.377 30.4734 117.878 30.1379 117.448 29.7076L117.307 29.849C117.755 30.2977 118.276 30.6477 118.868 30.8987L118.946 30.7146ZM117.449 29.7081C117.024 29.2783 116.689 28.7677 116.441 28.1753L116.257 28.2524C116.513 28.867 116.863 29.3994 117.306 29.8486L117.449 29.7081ZM116.441 28.1757C116.195 27.5796 116.071 26.9248 116.071 26.21H115.871C115.871 26.9483 115.999 27.6294 116.257 28.2521L116.441 28.1757ZM116.071 26.21V17.8428H115.871V26.21H116.071ZM115.971 17.9428H118.379V17.7428H115.971V17.9428ZM118.279 17.8428V22.2373H118.479V17.8428H118.279ZM118.458 22.2991C118.581 22.1431 118.729 22.0031 118.903 21.8794L118.787 21.7163C118.598 21.8504 118.436 22.0034 118.301 22.1755L118.458 22.2991ZM118.902 21.8803C119.083 21.7557 119.275 21.6539 119.479 21.5746L119.407 21.3882C119.188 21.4731 118.982 21.5822 118.788 21.7154L118.902 21.8803ZM119.478 21.575C119.689 21.4951 119.906 21.4352 120.128 21.3953L120.093 21.1984C119.859 21.2405 119.63 21.3037 119.407 21.3879L119.478 21.575ZM120.131 21.3948C120.353 21.3492 120.569 21.3266 120.779 21.3266V21.1266C120.555 21.1266 120.325 21.1508 120.091 21.1989L120.131 21.3948ZM120.779 21.3266C121.434 21.3266 122.044 21.45 122.611 21.6962L122.691 21.5128C122.097 21.2551 121.46 21.1266 120.779 21.1266V21.3266ZM122.612 21.6967C123.186 21.9377 123.684 22.2759 124.108 22.7114L124.252 22.5718C123.809 22.1167 123.288 21.7635 122.69 21.5123L122.612 21.6967ZM124.108 22.7114C124.533 23.147 124.869 23.6635 125.116 24.2618L125.301 24.1854C125.044 23.565 124.695 23.0268 124.252 22.5718L124.108 22.7114ZM125.116 24.2622C125.362 24.8523 125.486 25.5011 125.486 26.21H125.686C125.686 25.4774 125.558 24.802 125.301 24.1851L125.116 24.2622ZM123.269 26.21C123.269 25.8346 123.203 25.4845 123.068 25.1609L122.884 25.2376C123.007 25.535 123.069 25.8588 123.069 26.21H123.269ZM123.069 25.163C122.942 24.8354 122.765 24.5517 122.539 24.313L122.394 24.4507C122.601 24.669 122.764 24.9302 122.883 25.2355L123.069 25.163ZM122.539 24.313C122.313 24.0747 122.047 23.8883 121.742 23.7542L121.661 23.9372C121.942 24.0609 122.186 24.2319 122.394 24.4507L122.539 24.313ZM121.743 23.7545C121.442 23.6195 121.12 23.5523 120.779 23.5523V23.7523C121.093 23.7523 121.387 23.8141 121.661 23.9369L121.743 23.7545ZM120.779 23.5523C120.435 23.5523 120.109 23.6292 119.802 23.7826L119.892 23.9615C120.171 23.822 120.466 23.7523 120.779 23.7523V23.5523ZM119.803 23.7823C119.504 23.9286 119.242 24.1268 119.017 24.3764L119.165 24.5104C119.374 24.2795 119.616 24.0968 119.891 23.9619L119.803 23.7823ZM119.018 24.3755C118.792 24.6193 118.616 24.9024 118.488 25.2239L118.674 25.2976C118.793 24.998 118.957 24.7362 119.165 24.5113L119.018 24.3755ZM118.489 25.2233C118.361 25.5399 118.297 25.869 118.297 26.21H118.497C118.497 25.8947 118.556 25.591 118.674 25.2982L118.489 25.2233ZM118.297 26.21C118.297 26.5847 118.36 26.9343 118.488 27.2575L118.674 27.1839C118.556 26.886 118.497 26.5617 118.497 26.21H118.297ZM118.488 27.2575C118.616 27.5792 118.793 27.8598 119.019 28.0981L119.164 27.9605C118.956 27.7418 118.793 27.4833 118.674 27.1839L118.488 27.2575ZM119.019 28.0981C119.244 28.3357 119.506 28.5247 119.805 28.6647L119.89 28.4837C119.614 28.3542 119.372 28.1799 119.164 27.9605L119.019 28.0981ZM119.807 28.6658C120.113 28.8004 120.437 28.8676 120.779 28.8676V28.6676C120.464 28.6676 120.167 28.6059 119.887 28.4827L119.807 28.6658ZM120.779 28.8676C121.12 28.8676 121.442 28.8004 121.743 28.6654L121.661 28.483C121.387 28.6059 121.093 28.6676 120.779 28.6676V28.8676ZM121.743 28.6651C122.048 28.5251 122.313 28.3361 122.539 28.0981L122.394 27.9605C122.186 28.1795 121.941 28.3538 121.66 28.4834L121.743 28.6651ZM122.539 28.0981C122.765 27.8598 122.941 27.5792 123.069 27.2575L122.883 27.1839C122.764 27.4833 122.601 27.7418 122.394 27.9605L122.539 28.0981ZM123.068 27.259C123.203 26.9354 123.269 26.5853 123.269 26.21H123.069C123.069 26.5612 123.007 26.8849 122.884 27.1824L123.068 27.259ZM129.55 34.5859H129.45V34.6845L129.548 34.6859L129.55 34.5859ZM129.55 32.1689L129.551 32.069L129.45 32.0676V32.1689H129.55ZM130.886 32.1865L130.884 32.2865H130.886V32.1865ZM132.16 31.7559L132.102 31.6746L132.101 31.6755L132.16 31.7559ZM132.652 31.2725L132.573 31.2112L132.572 31.2125L132.652 31.2725ZM132.995 30.6748L133.088 30.7124L133.178 30.4889L132.956 30.5827L132.995 30.6748ZM132.187 31.0088L132.149 30.9161L132.148 30.9164L132.187 31.0088ZM128.39 29.998L128.319 30.0688L128.32 30.0698L128.39 29.998ZM127.484 28.6182L127.391 28.6551L127.392 28.6563L127.484 28.6182ZM127.159 21.5869V21.4869H127.059V21.5869H127.159ZM129.55 21.5869H129.65V21.4869H129.55V21.5869ZM129.69 27.6689L129.597 27.7038L129.598 27.7065L129.69 27.6689ZM130.086 28.293L130.014 28.3624L130.015 28.3637L130.086 28.293ZM130.657 28.6621L130.622 28.7556L130.623 28.7559L130.657 28.6621ZM132.064 28.6182L132.109 28.7071L132.11 28.7067L132.064 28.6182ZM133.03 27.5283L133.123 27.5655L133.123 27.5647L133.03 27.5283ZM133.171 21.5869V21.4869H133.071V21.5869H133.171ZM135.588 21.5869H135.688V21.4869H135.588V21.5869ZM135.588 29.8135L135.688 29.8144V29.8135H135.588ZM134.164 33.1973L134.094 33.1261L134.093 33.1266L134.164 33.1973ZM130.78 34.6035L130.779 34.7035H130.78V34.6035ZM129.65 34.5859V32.1689H129.45V34.5859H129.65ZM129.549 32.2689L130.884 32.2865L130.887 32.0865L129.551 32.069L129.549 32.2689ZM130.886 32.2865C131.131 32.2865 131.368 32.2466 131.596 32.1666L131.529 31.9779C131.323 32.0503 131.109 32.0865 130.886 32.0865V32.2865ZM131.596 32.1666C131.822 32.0872 132.03 31.977 132.22 31.8362L132.101 31.6755C131.927 31.8042 131.737 31.905 131.529 31.9779L131.596 32.1666ZM132.219 31.8371C132.414 31.6963 132.586 31.528 132.732 31.3325L132.572 31.2125C132.438 31.392 132.281 31.5459 132.102 31.6747L132.219 31.8371ZM132.731 31.3337C132.878 31.1447 132.997 30.9375 133.088 30.7124L132.902 30.6372C132.818 30.8457 132.708 31.037 132.573 31.2112L132.731 31.3337ZM132.956 30.5827C132.693 30.6938 132.424 30.8049 132.149 30.9161L132.224 31.1015C132.5 30.99 132.77 30.8785 133.034 30.7669L132.956 30.5827ZM132.148 30.9164C131.89 31.023 131.631 31.0758 131.369 31.0758V31.2758C131.658 31.2758 131.944 31.2172 132.225 31.1012L132.148 30.9164ZM131.369 31.0758C130.801 31.0758 130.269 30.9754 129.772 30.7754L129.697 30.9609C130.219 31.1711 130.777 31.2758 131.369 31.2758V31.0758ZM129.772 30.7754C129.274 30.575 128.837 30.2921 128.459 29.9263L128.32 30.0698C128.716 30.454 129.176 30.7511 129.697 30.9609L129.772 30.7754ZM128.46 29.9273C128.09 29.5565 127.795 29.1079 127.577 28.58L127.392 28.6563C127.619 29.2066 127.928 29.6778 128.319 30.0688L128.46 29.9273ZM127.577 28.5812C127.366 28.0497 127.259 27.4531 127.259 26.79H127.059C127.059 27.4747 127.169 28.0968 127.391 28.6551L127.577 28.5812ZM127.259 26.79V21.5869H127.059V26.79H127.259ZM127.159 21.6869H129.55V21.4869H127.159V21.6869ZM129.45 21.5869V26.79H129.65V21.5869H129.45ZM129.45 26.79C129.45 27.1332 129.498 27.4384 129.597 27.7038L129.784 27.6341C129.695 27.3956 129.65 27.1149 129.65 26.79H129.45ZM129.598 27.7065C129.702 27.963 129.84 28.1822 130.014 28.3624L130.158 28.2235C130.004 28.0639 129.879 27.8671 129.783 27.6314L129.598 27.7065ZM130.015 28.3637C130.189 28.5378 130.392 28.6686 130.622 28.7556L130.693 28.5686C130.489 28.4916 130.311 28.3763 130.157 28.2223L130.015 28.3637ZM130.623 28.7559C130.857 28.8423 131.106 28.8852 131.369 28.8852V28.6852C131.128 28.6852 130.903 28.646 130.692 28.5683L130.623 28.7559ZM131.369 28.8852C131.631 28.8852 131.878 28.8258 132.109 28.7071L132.018 28.5292C131.815 28.6332 131.6 28.6852 131.369 28.6852V28.8852ZM132.11 28.7067C132.344 28.5838 132.547 28.4238 132.719 28.227L132.568 28.0953C132.412 28.2734 132.229 28.4181 132.017 28.5297L132.11 28.7067ZM132.719 28.227C132.89 28.0309 133.025 27.8102 133.123 27.5655L132.937 27.4912C132.848 27.7152 132.725 27.9164 132.568 28.0953L132.719 28.227ZM133.123 27.5647C133.222 27.3131 133.271 27.0547 133.271 26.79H133.071C133.071 27.0293 133.026 27.263 132.937 27.492L133.123 27.5647ZM133.271 26.79V21.5869H133.071V26.79H133.271ZM133.171 21.6869H135.588V21.4869H133.171V21.6869ZM135.488 21.5869V29.8135H135.688V21.5869H135.488ZM135.488 29.8126C135.482 30.4619 135.356 31.0697 135.109 31.6369L135.293 31.7166C135.55 31.1236 135.682 30.4892 135.688 29.8144L135.488 29.8126ZM135.109 31.6369C134.863 32.2056 134.524 32.7017 134.094 33.1261L134.234 33.2684C134.683 32.8257 135.036 32.3081 135.293 31.7166L135.109 31.6369ZM134.093 33.1266C133.669 33.551 133.173 33.8868 132.604 34.1339L132.683 34.3173C133.275 34.0605 133.792 33.7107 134.235 33.268L134.093 33.1266ZM132.604 34.1339C132.037 34.3801 131.429 34.5035 130.78 34.5035V34.7035C131.455 34.7035 132.09 34.575 132.683 34.3173L132.604 34.1339ZM130.782 34.5035L129.551 34.4859L129.548 34.6859L130.779 34.7035L130.782 34.5035ZM140.202 34.5859V34.6859H140.302V34.5859H140.202ZM137.785 34.5859H137.685V34.6859H137.785V34.5859ZM137.785 21.5869V21.4869H137.685V21.5869H137.785ZM138.365 21.5869L138.441 21.5224L138.411 21.4869H138.365V21.5869ZM139.323 22.7207L139.247 22.7852L139.315 22.866L139.392 22.7933L139.323 22.7207ZM140.835 21.6748L140.877 21.7654L140.878 21.765L140.835 21.6748ZM144.473 21.6045L144.435 21.6969L144.436 21.6973L144.473 21.6045ZM146.003 22.6064L145.932 22.6772L145.932 22.6776L146.003 22.6064ZM147.04 24.1797L146.947 24.2176L146.947 24.2179L147.04 24.1797ZM147.04 28.3018L147.132 28.3397L147.132 28.3393L147.04 28.3018ZM146.003 29.875L146.073 29.9462L146.073 29.9462L146.003 29.875ZM144.473 30.8594L144.437 30.7662L144.437 30.7663L144.473 30.8594ZM141.977 31.1318L141.955 31.2293L141.956 31.2295L141.977 31.1318ZM141.362 30.9473L141.324 31.0398L141.327 31.041L141.362 30.9473ZM140.764 30.6748L140.719 30.7637L140.72 30.7642L140.764 30.6748ZM140.202 30.3672L140.252 30.2807L140.102 30.1935V30.3672H140.202ZM144.816 25.1377L144.723 25.1739L144.723 25.1754L144.816 25.1377ZM144.306 24.3379L144.235 24.4077L144.236 24.4086L144.306 24.3379ZM141.678 23.8281L141.641 23.7353L141.641 23.7355L141.678 23.8281ZM140.923 24.3379L140.993 24.4086L140.994 24.4077L140.923 24.3379ZM140.404 25.1377L140.311 25.1L140.311 25.1015L140.404 25.1377ZM140.404 27.2559L140.311 27.2921L140.311 27.2936L140.404 27.2559ZM141.678 28.583L141.639 28.6749L141.64 28.6752L141.678 28.583ZM144.816 27.2559L144.723 27.2181L144.723 27.2196L144.816 27.2559ZM140.202 34.4859H137.785V34.6859H140.202V34.4859ZM137.885 34.5859V21.5869H137.685V34.5859H137.885ZM137.785 21.6869H138.365V21.4869H137.785V21.6869ZM138.289 21.6515L139.247 22.7852L139.399 22.6562L138.441 21.5224L138.289 21.6515ZM139.392 22.7933C139.605 22.5917 139.838 22.4014 140.092 22.2224L139.977 22.0589C139.716 22.2431 139.475 22.4395 139.254 22.6481L139.392 22.7933ZM140.092 22.2224C140.346 22.044 140.607 21.8917 140.877 21.7654L140.792 21.5842C140.511 21.7157 140.24 21.874 139.977 22.0589L140.092 22.2224ZM140.878 21.765C141.153 21.633 141.437 21.5298 141.729 21.4553L141.68 21.2615C141.375 21.3393 141.079 21.447 140.791 21.5846L140.878 21.765ZM141.729 21.4553C142.02 21.3812 142.314 21.3441 142.61 21.3441V21.1441C142.297 21.1441 141.987 21.1833 141.68 21.2615L141.729 21.4553ZM142.61 21.3441C143.26 21.3441 143.868 21.4619 144.435 21.6969L144.512 21.5121C143.919 21.2666 143.285 21.1441 142.61 21.1441V21.3441ZM144.436 21.6973C145.01 21.9268 145.508 22.2534 145.932 22.6772L146.073 22.5357C145.63 22.0923 145.109 21.7509 144.51 21.5116L144.436 21.6973ZM145.932 22.6776C146.362 23.101 146.7 23.6139 146.947 24.2176L147.132 24.1418C146.876 23.515 146.523 22.979 146.073 22.5353L145.932 22.6776ZM146.947 24.2179C147.194 24.8137 147.318 25.4773 147.318 26.21H147.518C147.518 25.4544 147.39 24.7644 147.132 24.1415L146.947 24.2179ZM147.318 26.21C147.318 26.9725 147.193 27.6567 146.947 28.2642L147.132 28.3393C147.39 27.7046 147.518 26.9943 147.518 26.21H147.318ZM146.947 28.2639C146.7 28.8676 146.362 29.3804 145.932 29.8038L146.073 29.9462C146.523 29.5024 146.876 28.9664 147.132 28.3397L146.947 28.2639ZM145.932 29.8038C145.509 30.2217 145.011 30.5425 144.437 30.7662L144.51 30.9525C145.108 30.7192 145.629 30.3838 146.073 29.9462L145.932 29.8038ZM144.437 30.7663C143.869 30.99 143.26 31.1021 142.61 31.1021V31.3021C143.284 31.3021 143.918 31.1858 144.51 30.9524L144.437 30.7663ZM142.61 31.1021C142.407 31.1021 142.203 31.0795 141.999 31.0342L141.956 31.2295C142.173 31.2779 142.392 31.3021 142.61 31.3021V31.1021ZM142 31.0344C141.799 30.9885 141.598 30.9282 141.397 30.8535L141.327 31.041C141.536 31.1186 141.745 31.1814 141.955 31.2293L142 31.0344ZM141.4 30.8548C141.203 30.7737 141.006 30.6839 140.809 30.5854L140.72 30.7642C140.921 30.8649 141.122 30.9567 141.324 31.0397L141.4 30.8548ZM140.81 30.5859C140.618 30.487 140.432 30.3853 140.252 30.2807L140.152 30.4537C140.335 30.56 140.524 30.6634 140.719 30.7637L140.81 30.5859ZM140.102 30.3672V34.5859H140.302V30.3672H140.102ZM145.109 26.21C145.109 25.8007 145.043 25.4302 144.909 25.1L144.723 25.1754C144.847 25.478 144.909 25.8223 144.909 26.21H145.109ZM144.909 25.1015C144.782 24.7735 144.605 24.4948 144.377 24.2672L144.236 24.4086C144.442 24.6146 144.604 24.8691 144.723 25.1739L144.909 25.1015ZM144.378 24.2681C144.151 24.0353 143.885 23.8576 143.579 23.7353L143.505 23.921C143.785 24.033 144.028 24.1952 144.235 24.4077L144.378 24.2681ZM143.579 23.7353C143.274 23.6132 142.95 23.5523 142.61 23.5523V23.7523C142.926 23.7523 143.224 23.8087 143.505 23.921L143.579 23.7353ZM142.61 23.5523C142.27 23.5523 141.947 23.6132 141.641 23.7353L141.716 23.921C141.996 23.8087 142.294 23.7523 142.61 23.7523V23.5523ZM141.641 23.7355C141.341 23.8579 141.077 24.0356 140.851 24.2681L140.994 24.4077C141.201 24.1948 141.442 24.0327 141.716 23.9207L141.641 23.7355ZM140.852 24.2672C140.625 24.4944 140.445 24.7726 140.311 25.1L140.497 25.1754C140.621 24.8699 140.787 24.615 140.993 24.4086L140.852 24.2672ZM140.311 25.1015C140.183 25.4312 140.119 25.8012 140.119 26.21H140.319C140.319 25.8218 140.379 25.477 140.497 25.1739L140.311 25.1015ZM140.119 26.21C140.119 26.6017 140.183 26.9628 140.311 27.2921L140.497 27.2196C140.379 26.9161 140.319 26.5799 140.319 26.21H140.119ZM140.311 27.2936C140.445 27.6207 140.624 27.9015 140.851 28.1342L140.994 27.9947C140.787 27.7821 140.621 27.5238 140.497 27.2181L140.311 27.2936ZM140.851 28.1342C141.077 28.3664 141.34 28.5467 141.639 28.6749L141.718 28.4911C141.443 28.3732 141.202 28.2079 140.994 27.9947L140.851 28.1342ZM141.64 28.6752C141.945 28.8036 142.269 28.8676 142.61 28.8676V28.6676C142.295 28.6676 141.997 28.6085 141.717 28.4908L141.64 28.6752ZM142.61 28.8676C142.951 28.8676 143.275 28.8036 143.58 28.6752L143.503 28.4908C143.223 28.6085 142.925 28.6676 142.61 28.6676V28.8676ZM143.58 28.6752C143.885 28.5471 144.152 28.3667 144.378 28.1342L144.235 27.9947C144.027 28.2075 143.784 28.3728 143.503 28.4908L143.58 28.6752ZM144.378 28.1342C144.605 27.9011 144.782 27.6199 144.909 27.2921L144.723 27.2196C144.604 27.5247 144.441 27.7825 144.235 27.9947L144.378 28.1342ZM144.909 27.2936C145.043 26.9639 145.109 26.6023 145.109 26.21H144.909C144.909 26.5794 144.847 26.915 144.723 27.2181L144.909 27.2936ZM158.228 31V31.1H158.328V31H158.228ZM157.648 31L157.567 31.0585L157.597 31.1H157.648V31ZM156.716 29.708L156.797 29.6495L156.732 29.5593L156.649 29.6336L156.716 29.708ZM155.987 30.2881L156.044 30.3701L156.044 30.3698L155.987 30.2881ZM155.187 30.7539L155.229 30.8448L155.23 30.8441L155.187 30.7539ZM154.317 31.0615L154.292 30.9646L154.292 30.9647L154.317 31.0615ZM151.548 30.8418L151.512 30.9352L151.513 30.9353L151.548 30.8418ZM150.019 29.875L149.949 29.9462L149.95 29.9471L150.019 29.875ZM148.991 24.1973L149.083 24.2355L149.083 24.2352L148.991 24.1973ZM150.019 22.6152L149.948 22.5445L149.948 22.545L150.019 22.6152ZM151.548 21.5957L151.586 21.6881L151.587 21.6879L151.548 21.5957ZM155.995 22.1318L155.937 22.213L155.938 22.2136L155.995 22.1318ZM156.716 22.7207L156.647 22.7933L156.725 22.8665L156.793 22.7848L156.716 22.7207ZM157.648 21.6045V21.5045H157.601L157.571 21.5404L157.648 21.6045ZM158.228 21.6045H158.328V21.5045H158.228V21.6045ZM155.618 25.2607L155.525 25.2976L155.525 25.2997L155.618 25.2607ZM155.108 24.4434L155.033 24.5104L155.034 24.5113L155.108 24.4434ZM154.343 23.8721L154.298 23.9612L154.3 23.9622L154.343 23.8721ZM152.489 23.8193L152.453 23.7259L152.452 23.7261L152.489 23.8193ZM151.733 24.3115L151.662 24.2408L151.661 24.2418L151.733 24.3115ZM151.232 25.1201L151.325 25.1564L151.325 25.1558L151.232 25.1201ZM151.232 27.3086L151.138 27.3443L151.139 27.3448L151.232 27.3086ZM151.733 28.1084L151.661 28.1781L151.662 28.1791L151.733 28.1084ZM152.489 28.6006L152.452 28.6938L152.453 28.6941L152.489 28.6006ZM154.343 28.5566L154.387 28.6464L154.388 28.6461L154.343 28.5566ZM155.108 27.9854L155.181 28.0533L155.182 28.0523L155.108 27.9854ZM155.618 27.168L155.525 27.1296L155.525 27.1305L155.618 27.168ZM158.228 30.9H157.648V31.1H158.228V30.9ZM157.729 30.9415L156.797 29.6495L156.635 29.7665L157.567 31.0585L157.729 30.9415ZM156.649 29.6336C156.424 29.836 156.184 30.0269 155.929 30.2063L156.044 30.3698C156.305 30.186 156.551 29.9902 156.783 29.7824L156.649 29.6336ZM155.929 30.2061C155.682 30.3787 155.42 30.5313 155.144 30.6637L155.23 30.8441C155.516 30.707 155.787 30.549 156.044 30.3701L155.929 30.2061ZM155.145 30.663C154.869 30.7894 154.585 30.8899 154.292 30.9646L154.341 31.1584C154.646 31.0808 154.942 30.9762 155.229 30.8448L155.145 30.663ZM154.292 30.9647C154.007 31.0388 153.716 31.0758 153.42 31.0758V31.2758C153.733 31.2758 154.041 31.2366 154.342 31.1583L154.292 30.9647ZM153.42 31.0758C152.77 31.0758 152.158 30.9664 151.584 30.7483L151.513 30.9353C152.111 31.1625 152.747 31.2758 153.42 31.2758V31.0758ZM151.584 30.7484C151.016 30.5305 150.518 30.2153 150.088 29.8029L149.95 29.9471C150.399 30.3784 150.92 30.7078 151.512 30.9352L151.584 30.7484ZM150.089 29.8038C149.666 29.3864 149.33 28.8765 149.083 28.2726L148.898 28.3484C149.155 28.975 149.505 29.5081 149.949 29.9462L150.089 29.8038ZM149.083 28.2726C148.837 27.6714 148.713 26.9844 148.713 26.21H148.513C148.513 27.0058 148.64 27.7192 148.898 28.3484L149.083 28.2726ZM148.713 26.21C148.713 25.4892 148.837 24.8315 149.083 24.2355L148.898 24.1591C148.641 24.7818 148.513 25.4659 148.513 26.21H148.713ZM149.083 24.2352C149.33 23.6311 149.666 23.1149 150.09 22.6855L149.948 22.545C149.504 22.9944 149.155 23.533 148.898 24.1594L149.083 24.2352ZM150.09 22.6859C150.52 22.2559 151.018 21.9234 151.586 21.6881L151.51 21.5033C150.918 21.7485 150.397 22.0957 149.948 22.5445L150.09 22.6859ZM151.587 21.6879C152.16 21.4472 152.771 21.3266 153.42 21.3266V21.1266C152.745 21.1266 152.108 21.252 151.509 21.5035L151.587 21.6879ZM153.42 21.3266C153.716 21.3266 154.01 21.3636 154.301 21.4377L154.35 21.2439C154.043 21.1657 153.733 21.1266 153.42 21.1266V21.3266ZM154.301 21.4377C154.593 21.5122 154.877 21.6155 155.152 21.7474L155.239 21.567C154.952 21.4295 154.655 21.3217 154.35 21.2439L154.301 21.4377ZM155.152 21.7474C155.428 21.8796 155.69 22.0348 155.937 22.213L156.054 22.0507C155.797 21.8656 155.525 21.7044 155.239 21.567L155.152 21.7474ZM155.938 22.2136C156.192 22.3925 156.428 22.5858 156.647 22.7933L156.785 22.6481C156.559 22.4338 156.315 22.2344 156.053 22.0501L155.938 22.2136ZM156.793 22.7848L157.725 21.6686L157.571 21.5404L156.639 22.6566L156.793 22.7848ZM157.648 21.7045H158.228V21.5045H157.648V21.7045ZM158.128 21.6045V31H158.328V21.6045H158.128ZM155.911 26.21C155.911 25.8683 155.844 25.5387 155.71 25.2218L155.525 25.2997C155.649 25.5922 155.711 25.8953 155.711 26.21H155.911ZM155.71 25.2239C155.583 24.9024 155.407 24.6193 155.181 24.3755L155.034 24.5113C155.242 24.7362 155.406 24.998 155.525 25.2976L155.71 25.2239ZM155.182 24.3764C154.956 24.1264 154.691 23.9281 154.386 23.7819L154.3 23.9622C154.581 24.0972 154.825 24.2798 155.033 24.5104L155.182 24.3764ZM154.389 23.783C154.087 23.6292 153.764 23.5523 153.42 23.5523V23.7523C153.733 23.7523 154.025 23.822 154.298 23.9611L154.389 23.783ZM153.42 23.5523C153.081 23.5523 152.758 23.61 152.453 23.7259L152.524 23.9128C152.805 23.806 153.104 23.7523 153.42 23.7523V23.5523ZM152.452 23.7261C152.152 23.8424 151.889 24.0141 151.662 24.2408L151.803 24.3822C152.01 24.1753 152.251 24.0189 152.525 23.9126L152.452 23.7261ZM151.661 24.2418C151.439 24.4696 151.266 24.7512 151.138 25.0844L151.325 25.1558C151.444 24.8445 151.604 24.587 151.804 24.3813L151.661 24.2418ZM151.139 25.0839C151.01 25.414 150.947 25.7899 150.947 26.21H151.147C151.147 25.8097 151.207 25.4591 151.325 25.1564L151.139 25.0839ZM150.947 26.21C150.947 26.6301 151.01 27.0087 151.138 27.3443L151.325 27.2729C151.207 26.964 151.147 26.6102 151.147 26.21H150.947ZM151.139 27.3448C151.266 27.6722 151.44 27.9506 151.661 28.1781L151.804 28.0387C151.604 27.8326 151.444 27.5778 151.325 27.2723L151.139 27.3448ZM151.662 28.1791C151.889 28.4058 152.152 28.5775 152.452 28.6938L152.525 28.5073C152.251 28.401 152.01 28.2446 151.803 28.0377L151.662 28.1791ZM152.453 28.6941C152.758 28.8099 153.081 28.8676 153.42 28.8676V28.6676C153.104 28.6676 152.805 28.6139 152.524 28.5071L152.453 28.6941ZM153.42 28.8676C153.763 28.8676 154.086 28.794 154.387 28.6464L154.299 28.4668C154.026 28.6006 153.734 28.6676 153.42 28.6676V28.8676ZM154.388 28.6461C154.691 28.4943 154.956 28.2967 155.181 28.0533L155.034 27.9174C154.826 28.1427 154.581 28.326 154.298 28.4672L154.388 28.6461ZM155.182 28.0523C155.407 27.8033 155.583 27.5208 155.71 27.2054L155.525 27.1305C155.406 27.4245 155.242 27.6869 155.033 27.9184L155.182 28.0523ZM155.71 27.2063C155.844 26.8839 155.911 26.5516 155.911 26.21H155.711C155.711 26.5246 155.649 26.8309 155.525 27.1296L155.71 27.2063ZM160.108 31H160.008V31.1H160.108V31ZM160.108 28.6094V28.5094H160.008V28.6094H160.108ZM160.978 26.7197L160.907 26.7897L160.908 26.7904L160.978 26.7197ZM160.337 25.7617L160.245 25.8004L160.245 25.8016L160.337 25.7617ZM160.337 23.4238L160.245 23.3839L160.245 23.3852L160.337 23.4238ZM161.928 21.8418L161.966 21.934L161.968 21.9335L161.928 21.8418ZM167.957 21.6045H168.057V21.5045H167.957V21.6045ZM167.957 23.9951V24.0951H168.057V23.9951H167.957ZM162.675 25.0322L162.602 25.1012L162.604 25.1029L162.675 25.0322ZM166.753 25.4189L166.717 25.5122L166.718 25.5127L166.753 25.4189ZM168.344 29.1807L168.435 29.2211L168.435 29.2206L168.344 29.1807ZM167.702 30.1299L167.773 30.2006L167.774 30.1998L167.702 30.1299ZM166.753 30.7715L166.792 30.8637L166.793 30.8632L166.753 30.7715ZM165.593 30.9H160.108V31.1H165.593V30.9ZM160.208 31V28.6094H160.008V31H160.208ZM160.108 28.7094H165.593V28.5094H160.108V28.7094ZM165.593 28.7094C165.784 28.7094 165.95 28.64 166.085 28.5043L165.944 28.3629C165.845 28.4615 165.73 28.5094 165.593 28.5094V28.7094ZM166.085 28.5043C166.221 28.3686 166.29 28.2026 166.29 28.0117H166.09C166.09 28.149 166.043 28.2642 165.944 28.3629L166.085 28.5043ZM166.29 28.0117C166.29 27.8176 166.221 27.6608 166.056 27.5865L165.974 27.7689C166.043 27.8001 166.09 27.866 166.09 28.0117H166.29ZM166.056 27.5865C165.923 27.5266 165.767 27.4986 165.593 27.4986V27.6986C165.746 27.6986 165.872 27.7234 165.974 27.7689L166.056 27.5865ZM165.593 27.4986H163.097V27.6986H165.593V27.4986ZM163.097 27.4986C162.694 27.4986 162.318 27.4221 161.968 27.2696L161.888 27.453C162.264 27.617 162.668 27.6986 163.097 27.6986V27.4986ZM161.968 27.2696C161.615 27.1162 161.31 26.9093 161.049 26.649L160.908 26.7904C161.187 27.0692 161.513 27.29 161.888 27.453L161.968 27.2696ZM161.05 26.6498C160.789 26.3833 160.582 26.0742 160.429 25.7218L160.245 25.8016C160.408 26.1758 160.629 26.5053 160.907 26.7897L161.05 26.6498ZM160.429 25.723C160.282 25.3727 160.208 24.9963 160.208 24.5928H160.008C160.008 25.0213 160.087 25.4242 160.245 25.8004L160.429 25.723ZM160.208 24.5928C160.208 24.1893 160.282 23.8129 160.429 23.4625L160.245 23.3852C160.087 23.7614 160.008 24.1642 160.008 24.5928H160.208ZM160.429 23.4638C160.582 23.1115 160.789 22.8056 161.049 22.5453L160.908 22.4039C160.629 22.6826 160.408 23.0096 160.245 23.3839L160.429 23.4638ZM161.049 22.5453C161.309 22.2853 161.615 22.0815 161.966 21.934L161.889 21.7496C161.514 21.9068 161.187 22.1249 160.908 22.4039L161.049 22.5453ZM161.968 21.9335C162.318 21.781 162.694 21.7045 163.097 21.7045V21.5045C162.668 21.5045 162.264 21.5862 161.888 21.7501L161.968 21.9335ZM163.097 21.7045H167.957V21.5045H163.097V21.7045ZM167.857 21.6045V23.9951H168.057V21.6045H167.857ZM167.957 23.8951H163.097V24.0951H167.957V23.8951ZM163.097 23.8951C162.906 23.8951 162.74 23.9645 162.604 24.1002L162.745 24.2416C162.844 24.143 162.959 24.0951 163.097 24.0951V23.8951ZM162.604 24.1002C162.468 24.2359 162.399 24.4019 162.399 24.5928H162.599C162.599 24.4555 162.647 24.3403 162.745 24.2416L162.604 24.1002ZM162.399 24.5928C162.399 24.7884 162.467 24.9596 162.602 25.1012L162.747 24.9633C162.648 24.8588 162.599 24.737 162.599 24.5928H162.399ZM162.604 25.1029C162.74 25.2387 162.906 25.308 163.097 25.308V25.108C162.959 25.108 162.844 25.0602 162.745 24.9615L162.604 25.1029ZM163.097 25.308H165.593V25.108H163.097V25.308ZM165.593 25.308C165.991 25.308 166.366 25.3763 166.717 25.5122L166.789 25.3257C166.414 25.1804 166.015 25.108 165.593 25.108V25.308ZM166.718 25.5127C167.07 25.6433 167.375 25.8272 167.635 26.0641L167.77 25.9164C167.49 25.6611 167.162 25.4641 166.788 25.3252L166.718 25.5127ZM167.635 26.0641C167.894 26.3007 168.1 26.5855 168.253 26.9195L168.435 26.8363C168.271 26.4789 168.049 26.1719 167.77 25.9164L167.635 26.0641ZM168.253 26.9195C168.405 27.2512 168.481 27.6148 168.481 28.0117H168.681C168.681 27.5884 168.599 27.1961 168.435 26.8363L168.253 26.9195ZM168.481 28.0117C168.481 28.4147 168.404 28.7907 168.252 29.1407L168.435 29.2206C168.599 28.8441 168.681 28.4408 168.681 28.0117H168.481ZM168.252 29.1402C168.099 29.4868 167.892 29.7932 167.631 30.0599L167.774 30.1998C168.052 29.9158 168.272 29.5893 168.435 29.2211L168.252 29.1402ZM167.631 30.0592C167.371 30.3195 167.065 30.5264 166.713 30.6798L166.793 30.8632C167.167 30.7002 167.494 30.4793 167.773 30.2006L167.631 30.0592ZM166.714 30.6793C166.364 30.8263 165.99 30.9 165.593 30.9V31.1C166.016 31.1 166.416 31.0214 166.792 30.8637L166.714 30.6793ZM169.908 31H169.808V31.1H169.908V31ZM169.908 28.6094V28.5094H169.808V28.6094H169.908ZM170.778 26.7197L170.706 26.7897L170.707 26.7904L170.778 26.7197ZM170.136 25.7617L170.044 25.8004L170.045 25.8016L170.136 25.7617ZM170.136 23.4238L170.045 23.3839L170.044 23.3852L170.136 23.4238ZM171.727 21.8418L171.766 21.934L171.767 21.9335L171.727 21.8418ZM177.756 21.6045H177.856V21.5045H177.756V21.6045ZM177.756 23.9951V24.0951H177.856V23.9951H177.756ZM172.474 25.0322L172.402 25.1012L172.404 25.1029L172.474 25.0322ZM176.552 25.4189L176.516 25.5122L176.518 25.5127L176.552 25.4189ZM178.143 29.1807L178.235 29.2211L178.235 29.2206L178.143 29.1807ZM177.502 30.1299L177.572 30.2006L177.573 30.1998L177.502 30.1299ZM176.552 30.7715L176.591 30.8637L176.592 30.8632L176.552 30.7715ZM175.392 30.9H169.908V31.1H175.392V30.9ZM170.008 31V28.6094H169.808V31H170.008ZM169.908 28.7094H175.392V28.5094H169.908V28.7094ZM175.392 28.7094C175.583 28.7094 175.749 28.64 175.885 28.5043L175.743 28.3629C175.645 28.4615 175.529 28.5094 175.392 28.5094V28.7094ZM175.885 28.5043C176.021 28.3686 176.09 28.2026 176.09 28.0117H175.89C175.89 28.149 175.842 28.2642 175.743 28.3629L175.885 28.5043ZM176.09 28.0117C176.09 27.8176 176.02 27.6608 175.855 27.5865L175.773 27.7689C175.842 27.8001 175.89 27.866 175.89 28.0117H176.09ZM175.855 27.5865C175.722 27.5266 175.567 27.4986 175.392 27.4986V27.6986C175.546 27.6986 175.672 27.7234 175.773 27.7689L175.855 27.5865ZM175.392 27.4986H172.896V27.6986H175.392V27.4986ZM172.896 27.4986C172.493 27.4986 172.117 27.4221 171.767 27.2696L171.687 27.453C172.064 27.617 172.467 27.6986 172.896 27.6986V27.4986ZM171.767 27.2696C171.415 27.1162 171.109 26.9093 170.849 26.649L170.707 26.7904C170.986 27.0692 171.313 27.29 171.687 27.453L171.767 27.2696ZM170.849 26.6498C170.589 26.3833 170.381 26.0742 170.228 25.7218L170.045 25.8016C170.208 26.1758 170.428 26.5053 170.706 26.7897L170.849 26.6498ZM170.229 25.723C170.082 25.3727 170.008 24.9963 170.008 24.5928H169.808C169.808 25.0213 169.886 25.4242 170.044 25.8004L170.229 25.723ZM170.008 24.5928C170.008 24.1893 170.082 23.8129 170.229 23.4625L170.044 23.3852C169.886 23.7614 169.808 24.1642 169.808 24.5928H170.008ZM170.228 23.4638C170.381 23.1115 170.588 22.8056 170.849 22.5453L170.707 22.4039C170.428 22.6826 170.208 23.0096 170.045 23.3839L170.228 23.4638ZM170.849 22.5453C171.109 22.2853 171.414 22.0815 171.766 21.934L171.688 21.7496C171.314 21.9068 170.986 22.1249 170.707 22.4039L170.849 22.5453ZM171.767 21.9335C172.117 21.781 172.493 21.7045 172.896 21.7045V21.5045C172.467 21.5045 172.064 21.5862 171.687 21.7501L171.767 21.9335ZM172.896 21.7045H177.756V21.5045H172.896V21.7045ZM177.656 21.6045V23.9951H177.856V21.6045H177.656ZM177.756 23.8951H172.896V24.0951H177.756V23.8951ZM172.896 23.8951C172.705 23.8951 172.539 23.9645 172.404 24.1002L172.545 24.2416C172.644 24.143 172.759 24.0951 172.896 24.0951V23.8951ZM172.404 24.1002C172.268 24.2359 172.198 24.4019 172.198 24.5928H172.398C172.398 24.4555 172.446 24.3403 172.545 24.2416L172.404 24.1002ZM172.198 24.5928C172.198 24.7884 172.267 24.9596 172.402 25.1012L172.547 24.9633C172.447 24.8588 172.398 24.737 172.398 24.5928H172.198ZM172.404 25.1029C172.539 25.2387 172.705 25.308 172.896 25.308V25.108C172.759 25.108 172.644 25.0602 172.545 24.9615L172.404 25.1029ZM172.896 25.308H175.392V25.108H172.896V25.308ZM175.392 25.308C175.791 25.308 176.165 25.3763 176.516 25.5122L176.588 25.3257C176.213 25.1804 175.814 25.108 175.392 25.108V25.308ZM176.518 25.5127C176.87 25.6433 177.175 25.8272 177.434 26.0641L177.569 25.9164C177.289 25.6611 176.962 25.4641 176.587 25.3252L176.518 25.5127ZM177.434 26.0641C177.693 26.3007 177.899 26.5855 178.052 26.9195L178.234 26.8363C178.071 26.4789 177.849 26.1719 177.569 25.9164L177.434 26.0641ZM178.052 26.9195C178.204 27.2512 178.28 27.6148 178.28 28.0117H178.48C178.48 27.5884 178.399 27.1961 178.234 26.8363L178.052 26.9195ZM178.28 28.0117C178.28 28.4147 178.204 28.7907 178.051 29.1407L178.235 29.2206C178.399 28.8441 178.48 28.4408 178.48 28.0117H178.28ZM178.052 29.1402C177.898 29.4868 177.691 29.7932 177.43 30.0599L177.573 30.1998C177.851 29.9158 178.072 29.5893 178.235 29.2211L178.052 29.1402ZM177.431 30.0592C177.171 30.3195 176.865 30.5264 176.512 30.6798L176.592 30.8632C176.967 30.7002 177.294 30.4793 177.572 30.2006L177.431 30.0592ZM176.514 30.6793C176.163 30.8263 175.79 30.9 175.392 30.9V31.1C175.815 31.1 176.215 31.0214 176.591 30.8637L176.514 30.6793Z" fill="#FF0000"/>
<defs>
<filter id="filter0_i_85_1586" x="0" y="0" width="289" height="290" filterUnits="userSpaceOnUse" color-interpolation-filters="sRGB">
<feFlood flood-opacity="0" result="BackgroundImageFix"/>
<feBlend mode="normal" in="SourceGraphic" in2="BackgroundImageFix" result="shape"/>
<feColorMatrix in="SourceAlpha" type="matrix" values="0 0 0 0 0 0 0 0 0 0 0 0 0 0 0 0 0 0 127 0" result="hardAlpha"/>
<feOffset dy="2"/>
<feGaussianBlur stdDeviation="0.5"/>
<feComposite in2="hardAlpha" operator="arithmetic" k2="-1" k3="1"/>
<feColorMatrix type="matrix" values="0 0 0 0 0.4 0 0 0 0 0.411765 0 0 0 0 0.498039 0 0 0 1 0"/>
<feBlend mode="normal" in2="shape" result="effect1_innerShadow_85_1586"/>
</filter>
<filter id="filter1_i_85_1586" x="95.501" y="-10" width="99.7256" height="84" filterUnits="userSpaceOnUse" color-interpolation-filters="sRGB">
<feFlood flood-opacity="0" result="BackgroundImageFix"/>
<feBlend mode="normal" in="SourceGraphic" in2="BackgroundImageFix" result="shape"/>
<feColorMatrix in="SourceAlpha" type="matrix" values="0 0 0 0 0 0 0 0 0 0 0 0 0 0 0 0 0 0 127 0" result="hardAlpha"/>
<feOffset dy="-20"/>
<feGaussianBlur stdDeviation="5"/>
<feComposite in2="hardAlpha" operator="arithmetic" k2="-1" k3="1"/>
<feColorMatrix type="matrix" values="0 0 0 0 1 0 0 0 0 0.8875 0 0 0 0 0.8875 0 0 0 1 0"/>
<feBlend mode="normal" in2="shape" result="effect1_innerShadow_85_1586"/>
</filter>
<filter id="filter2_i_85_1586" x="46.7842" y="46.7848" width="195.431" height="196.43" filterUnits="userSpaceOnUse" color-interpolation-filters="sRGB">
<feFlood flood-opacity="0" result="BackgroundImageFix"/>
<feBlend mode="normal" in="SourceGraphic" in2="BackgroundImageFix" result="shape"/>
<feColorMatrix in="SourceAlpha" type="matrix" values="0 0 0 0 0 0 0 0 0 0 0 0 0 0 0 0 0 0 127 0" result="hardAlpha"/>
<feOffset dy="1"/>
<feGaussianBlur stdDeviation="8"/>
<feComposite in2="hardAlpha" operator="arithmetic" k2="-1" k3="1"/>
<feColorMatrix type="matrix" values="0 0 0 0 0 0 0 0 0 0 0 0 0 0 0 0 0 0 0.38 0"/>
<feBlend mode="normal" in2="shape" result="effect1_innerShadow_85_1586"/>
</filter>
<filter id="filter3_i_85_1586" x="115.971" y="17.8428" width="62.4102" height="18.7607" filterUnits="userSpaceOnUse" color-interpolation-filters="sRGB">
<feFlood flood-opacity="0" result="BackgroundImageFix"/>
<feBlend mode="normal" in="SourceGraphic" in2="BackgroundImageFix" result="shape"/>
<feColorMatrix in="SourceAlpha" type="matrix" values="0 0 0 0 0 0 0 0 0 0 0 0 0 0 0 0 0 0 127 0" result="hardAlpha"/>
<feOffset dy="2"/>
<feGaussianBlur stdDeviation="2.5"/>
<feComposite in2="hardAlpha" operator="arithmetic" k2="-1" k3="1"/>
<feColorMatrix type="matrix" values="0 0 0 0 0.958333 0 0 0 0 0.618924 0 0 0 0 0.618924 0 0 0 0.51 0"/>
<feBlend mode="normal" in2="shape" result="effect1_innerShadow_85_1586"/>
</filter>
<linearGradient id="paint0_linear_85_1586" x1="145" y1="-2" x2="145" y2="68.0625" gradientUnits="userSpaceOnUse">
<stop stop-color="white"/>
<stop offset="1" stop-color="#FFF4F4"/>
</linearGradient>
<linearGradient id="paint1_linear_85_1586" x1="173.386" y1="24" x2="118.936" y2="26.8649" gradientUnits="userSpaceOnUse">
<stop stop-color="#E90209"/>
<stop offset="1" stop-color="#FF0012"/>
</linearGradient>
</defs>
</svg>
