<svg width="289" height="289" viewBox="0 0 289 289" fill="none" xmlns="http://www.w3.org/2000/svg">
<mask id="mask0_80_1703" style="mask-type:alpha" maskUnits="userSpaceOnUse" x="0" y="0" width="289" height="289">
<circle cx="144.5" cy="144.5" r="144.5" fill="#33384C"/>
<circle cx="144.5" cy="144.5" r="143.5" stroke="#242739" stroke-opacity="0.8" stroke-width="2"/>
</mask>
<g mask="url(#mask0_80_1703)">
<g filter="url(#filter0_i_80_1703)">
<circle cx="144.5" cy="144.5" r="144.5" fill="#2B3041"/>
</g>
<circle cx="144.5" cy="144.5" r="143.5" stroke="#242739" stroke-opacity="0.8" stroke-width="2"/>
<g filter="url(#filter1_i_80_1703)">
<path d="M195.227 9.15479L167.482 74H129.744L95.501 8.51935C110.801 3.00526 127.299 0 144.5 0C162.35 0 179.444 3.23654 195.227 9.15479Z" fill="url(#paint0_linear_80_1703)" fill-opacity="0.8"/>
</g>
<path d="M144.5 0.5C162.104 0.5 178.97 3.6588 194.561 9.44011L167.152 73.5H130.047L96.2101 8.79647C111.305 3.42477 127.56 0.5 144.5 0.5Z" stroke="#1E2133" stroke-opacity="0.75"/>
</g>
<g filter="url(#filter2_i_80_1703)">
<circle cx="144.499" cy="144.5" r="97.7152" fill="#25293B"/>
</g>
<path d="M131.452 39.5859H129.035V26.5869H129.615L130.573 27.7207C130.79 27.5156 131.027 27.3223 131.285 27.1406C131.543 26.959 131.81 26.8037 132.085 26.6748C132.366 26.54 132.656 26.4346 132.955 26.3584C133.254 26.2822 133.556 26.2441 133.86 26.2441C134.523 26.2441 135.144 26.3643 135.724 26.6045C136.31 26.8389 136.819 27.1729 137.253 27.6064C137.692 28.04 138.038 28.5645 138.29 29.1797C138.542 29.7891 138.668 30.4658 138.668 31.21C138.668 31.9834 138.542 32.6807 138.29 33.3018C138.038 33.917 137.692 34.4414 137.253 34.875C136.819 35.3027 136.31 35.6309 135.724 35.8594C135.144 36.0879 134.523 36.2021 133.86 36.2021C133.649 36.2021 133.439 36.1787 133.228 36.1318C133.023 36.085 132.817 36.0234 132.612 35.9473C132.413 35.8652 132.214 35.7744 132.015 35.6748C131.821 35.5752 131.634 35.4727 131.452 35.3672V39.5859ZM136.26 31.21C136.26 30.8115 136.195 30.4541 136.066 30.1377C135.943 29.8213 135.774 29.5547 135.557 29.3379C135.34 29.1152 135.085 28.9453 134.792 28.8281C134.499 28.7109 134.189 28.6523 133.86 28.6523C133.532 28.6523 133.222 28.7109 132.929 28.8281C132.642 28.9453 132.39 29.1152 132.173 29.3379C131.956 29.5547 131.783 29.8213 131.654 30.1377C131.531 30.4541 131.47 30.8115 131.47 31.21C131.47 31.5908 131.531 31.9395 131.654 32.2559C131.783 32.5723 131.956 32.8418 132.173 33.0645C132.39 33.2871 132.642 33.46 132.929 33.583C133.222 33.7061 133.532 33.7676 133.86 33.7676C134.189 33.7676 134.499 33.7061 134.792 33.583C135.085 33.46 135.34 33.2871 135.557 33.0645C135.774 32.8418 135.943 32.5723 136.066 32.2559C136.195 31.9395 136.26 31.5908 136.26 31.21ZM149.478 36H148.898L147.967 34.708C147.738 34.9131 147.495 35.1064 147.237 35.2881C146.985 35.4639 146.718 35.6191 146.437 35.7539C146.156 35.8828 145.866 35.9854 145.567 36.0615C145.274 36.1377 144.975 36.1758 144.671 36.1758C144.009 36.1758 143.384 36.0645 142.799 35.8418C142.218 35.6191 141.709 35.2969 141.269 34.875C140.836 34.4473 140.493 33.9258 140.241 33.3105C139.989 32.6953 139.863 31.9951 139.863 31.21C139.863 30.4775 139.989 29.8066 140.241 29.1973C140.493 28.582 140.836 28.0547 141.269 27.6152C141.709 27.1758 142.218 26.8359 142.799 26.5957C143.384 26.3496 144.009 26.2266 144.671 26.2266C144.975 26.2266 145.277 26.2646 145.576 26.3408C145.875 26.417 146.165 26.5225 146.446 26.6572C146.727 26.792 146.994 26.9502 147.246 27.1318C147.504 27.3135 147.744 27.5098 147.967 27.7207L148.898 26.6045H149.478V36ZM147.061 31.21C147.061 30.8818 146.997 30.5654 146.868 30.2607C146.745 29.9502 146.575 29.6777 146.358 29.4434C146.141 29.2031 145.886 29.0127 145.593 28.8721C145.306 28.7256 144.999 28.6523 144.671 28.6523C144.342 28.6523 144.032 28.708 143.739 28.8193C143.452 28.9307 143.2 29.0947 142.983 29.3115C142.772 29.5283 142.605 29.7979 142.482 30.1201C142.359 30.4365 142.298 30.7998 142.298 31.21C142.298 31.6201 142.359 31.9863 142.482 32.3086C142.605 32.625 142.772 32.8916 142.983 33.1084C143.2 33.3252 143.452 33.4893 143.739 33.6006C144.032 33.7119 144.342 33.7676 144.671 33.7676C144.999 33.7676 145.306 33.6973 145.593 33.5566C145.886 33.4102 146.141 33.2197 146.358 32.9854C146.575 32.7451 146.745 32.4727 146.868 32.168C146.997 31.8574 147.061 31.5381 147.061 31.21ZM156.843 36H151.359V33.6094H156.843C157.007 33.6094 157.148 33.5508 157.265 33.4336C157.382 33.3164 157.441 33.1758 157.441 33.0117C157.441 32.8418 157.382 32.7305 157.265 32.6777C157.148 32.625 157.007 32.5986 156.843 32.5986H154.347C153.931 32.5986 153.541 32.5195 153.178 32.3613C152.815 32.2031 152.498 31.9893 152.229 31.7197C151.959 31.4443 151.745 31.125 151.587 30.7617C151.435 30.3984 151.359 30.0088 151.359 29.5928C151.359 29.1768 151.435 28.7871 151.587 28.4238C151.745 28.0605 151.959 27.7441 152.229 27.4746C152.498 27.2051 152.815 26.9941 153.178 26.8418C153.541 26.6836 153.931 26.6045 154.347 26.6045H159.207V28.9951H154.347C154.183 28.9951 154.042 29.0537 153.925 29.1709C153.808 29.2881 153.749 29.4287 153.749 29.5928C153.749 29.7627 153.808 29.9092 153.925 30.0322C154.042 30.1494 154.183 30.208 154.347 30.208H156.843C157.253 30.208 157.64 30.2783 158.003 30.4189C158.367 30.5537 158.683 30.7441 158.952 30.9902C159.222 31.2363 159.436 31.5322 159.594 31.8779C159.752 32.2236 159.831 32.6016 159.831 33.0117C159.831 33.4277 159.752 33.8174 159.594 34.1807C159.436 34.5381 159.222 34.8545 158.952 35.1299C158.683 35.3994 158.367 35.6133 158.003 35.7715C157.64 35.9238 157.253 36 156.843 36ZM166.643 36H161.158V33.6094H166.643C166.807 33.6094 166.947 33.5508 167.064 33.4336C167.182 33.3164 167.24 33.1758 167.24 33.0117C167.24 32.8418 167.182 32.7305 167.064 32.6777C166.947 32.625 166.807 32.5986 166.643 32.5986H164.146C163.73 32.5986 163.341 32.5195 162.978 32.3613C162.614 32.2031 162.298 31.9893 162.028 31.7197C161.759 31.4443 161.545 31.125 161.387 30.7617C161.234 30.3984 161.158 30.0088 161.158 29.5928C161.158 29.1768 161.234 28.7871 161.387 28.4238C161.545 28.0605 161.759 27.7441 162.028 27.4746C162.298 27.2051 162.614 26.9941 162.978 26.8418C163.341 26.6836 163.73 26.6045 164.146 26.6045H169.007V28.9951H164.146C163.982 28.9951 163.842 29.0537 163.725 29.1709C163.607 29.2881 163.549 29.4287 163.549 29.5928C163.549 29.7627 163.607 29.9092 163.725 30.0322C163.842 30.1494 163.982 30.208 164.146 30.208H166.643C167.053 30.208 167.439 30.2783 167.803 30.4189C168.166 30.5537 168.482 30.7441 168.752 30.9902C169.021 31.2363 169.235 31.5322 169.394 31.8779C169.552 32.2236 169.631 32.6016 169.631 33.0117C169.631 33.4277 169.552 33.8174 169.394 34.1807C169.235 34.5381 169.021 34.8545 168.752 35.1299C168.482 35.3994 168.166 35.6133 167.803 35.7715C167.439 35.9238 167.053 36 166.643 36Z" fill="white"/>
<path d="M131.452 39.5859V39.6859H131.552V39.5859H131.452ZM129.035 39.5859H128.935V39.6859H129.035V39.5859ZM129.035 26.5869V26.4869H128.935V26.5869H129.035ZM129.615 26.5869L129.692 26.5224L129.662 26.4869H129.615V26.5869ZM130.573 27.7207L130.497 27.7852L130.565 27.866L130.642 27.7934L130.573 27.7207ZM132.085 26.6748L132.127 26.7654L132.128 26.765L132.085 26.6748ZM135.724 26.6045L135.685 26.6969L135.687 26.6973L135.724 26.6045ZM137.253 27.6064L137.182 27.6772L137.183 27.6776L137.253 27.6064ZM138.29 29.1797L138.198 29.2176L138.198 29.2179L138.29 29.1797ZM138.29 33.3018L138.383 33.3397L138.383 33.3393L138.29 33.3018ZM137.253 34.875L137.323 34.9462L137.323 34.9462L137.253 34.875ZM135.724 35.8594L135.687 35.7662L135.687 35.7663L135.724 35.8594ZM133.228 36.1318L133.205 36.2293L133.206 36.2295L133.228 36.1318ZM132.612 35.9473L132.574 36.0398L132.578 36.041L132.612 35.9473ZM132.015 35.6748L131.969 35.7637L131.97 35.7642L132.015 35.6748ZM131.452 35.3672L131.502 35.2807L131.352 35.1935V35.3672H131.452ZM136.066 30.1377L135.973 30.1739L135.974 30.1754L136.066 30.1377ZM135.557 29.3379L135.485 29.4077L135.486 29.4086L135.557 29.3379ZM132.929 28.8281L132.892 28.7353L132.891 28.7355L132.929 28.8281ZM132.173 29.3379L132.244 29.4086L132.245 29.4077L132.173 29.3379ZM131.654 30.1377L131.562 30.1L131.561 30.1015L131.654 30.1377ZM131.654 32.2559L131.561 32.2921L131.562 32.2936L131.654 32.2559ZM132.929 33.583L132.889 33.6749L132.89 33.6752L132.929 33.583ZM136.066 32.2559L135.974 32.2181L135.973 32.2196L136.066 32.2559ZM131.452 39.4859H129.035V39.6859H131.452V39.4859ZM129.135 39.5859V26.5869H128.935V39.5859H129.135ZM129.035 26.6869H129.615V26.4869H129.035V26.6869ZM129.539 26.6515L130.497 27.7852L130.65 27.6562L129.692 26.5224L129.539 26.6515ZM130.642 27.7934C130.855 27.5917 131.089 27.4014 131.343 27.2224L131.228 27.0589C130.966 27.2431 130.725 27.4395 130.505 27.6481L130.642 27.7934ZM131.343 27.2224C131.596 27.044 131.858 26.8917 132.127 26.7654L132.043 26.5842C131.762 26.7157 131.49 26.874 131.228 27.0589L131.343 27.2224ZM132.128 26.765C132.404 26.633 132.687 26.5298 132.98 26.4553L132.93 26.2615C132.625 26.3393 132.329 26.447 132.042 26.5846L132.128 26.765ZM132.98 26.4553C133.271 26.3812 133.564 26.3441 133.86 26.3441V26.1441C133.547 26.1441 133.237 26.1833 132.93 26.2615L132.98 26.4553ZM133.86 26.3441C134.51 26.3441 135.118 26.4619 135.685 26.6969L135.762 26.5121C135.169 26.2666 134.535 26.1441 133.86 26.1441V26.3441ZM135.687 26.6973C136.26 26.9268 136.759 27.2534 137.182 27.6772L137.324 27.5357C136.88 27.0923 136.359 26.7509 135.761 26.5116L135.687 26.6973ZM137.183 27.6776C137.612 28.101 137.95 28.6139 138.198 29.2176L138.383 29.1418C138.126 28.515 137.773 27.979 137.323 27.5353L137.183 27.6776ZM138.198 29.2179C138.444 29.8137 138.568 30.4773 138.568 31.21H138.768C138.768 30.4544 138.64 29.7644 138.383 29.1415L138.198 29.2179ZM138.568 31.21C138.568 31.9725 138.444 32.6567 138.197 33.2642L138.383 33.3393C138.64 32.7046 138.768 31.9943 138.768 31.21H138.568ZM138.198 33.2639C137.95 33.8676 137.612 34.3804 137.183 34.8038L137.323 34.9462C137.773 34.5024 138.126 33.9664 138.383 33.3397L138.198 33.2639ZM137.183 34.8038C136.759 35.2217 136.261 35.5425 135.687 35.7662L135.76 35.9525C136.358 35.7192 136.88 35.3838 137.323 34.9462L137.183 34.8038ZM135.687 35.7663C135.119 35.99 134.511 36.1021 133.86 36.1021V36.3021C134.534 36.3021 135.168 36.1858 135.76 35.9524L135.687 35.7663ZM133.86 36.1021C133.657 36.1021 133.453 36.0795 133.249 36.0342L133.206 36.2295C133.424 36.2779 133.642 36.3021 133.86 36.3021V36.1021ZM133.25 36.0343C133.049 35.9885 132.848 35.9282 132.647 35.8535L132.578 36.041C132.787 36.1186 132.996 36.1814 133.205 36.2293L133.25 36.0343ZM132.65 35.8548C132.454 35.7737 132.257 35.6839 132.059 35.5854L131.97 35.7642C132.171 35.8649 132.373 35.9567 132.574 36.0397L132.65 35.8548ZM132.061 35.5859C131.869 35.487 131.683 35.3853 131.502 35.2807L131.402 35.4537C131.585 35.56 131.774 35.6634 131.969 35.7637L132.061 35.5859ZM131.352 35.3672V39.5859H131.552V35.3672H131.352ZM136.36 31.21C136.36 30.8007 136.294 30.4302 136.159 30.1L135.974 30.1754C136.097 30.478 136.16 30.8223 136.16 31.21H136.36ZM136.16 30.1015C136.032 29.7735 135.855 29.4948 135.627 29.2672L135.486 29.4086C135.692 29.6146 135.855 29.8691 135.973 30.1739L136.16 30.1015ZM135.628 29.2681C135.402 29.0353 135.135 28.8576 134.829 28.7353L134.755 28.921C135.035 29.033 135.278 29.1952 135.485 29.4077L135.628 29.2681ZM134.829 28.7353C134.524 28.6132 134.201 28.5523 133.86 28.5523V28.7523C134.176 28.7523 134.474 28.8087 134.755 28.921L134.829 28.7353ZM133.86 28.5523C133.52 28.5523 133.197 28.6132 132.892 28.7353L132.966 28.921C133.247 28.8087 133.545 28.7523 133.86 28.7523V28.5523ZM132.891 28.7355C132.591 28.8579 132.328 29.0356 132.101 29.2681L132.245 29.4077C132.452 29.1948 132.692 29.0327 132.967 28.9207L132.891 28.7355ZM132.102 29.2672C131.875 29.4944 131.695 29.7726 131.562 30.1L131.747 30.1754C131.871 29.8699 132.037 29.615 132.244 29.4086L132.102 29.2672ZM131.561 30.1015C131.433 30.4312 131.37 30.8012 131.37 31.21H131.57C131.57 30.8218 131.63 30.477 131.748 30.1739L131.561 30.1015ZM131.37 31.21C131.37 31.6017 131.433 31.9628 131.561 32.2921L131.748 32.2196C131.63 31.9161 131.57 31.5799 131.57 31.21H131.37ZM131.562 32.2936C131.695 32.6207 131.875 32.9015 132.101 33.1342L132.245 32.9947C132.038 32.7821 131.872 32.5238 131.747 32.2181L131.562 32.2936ZM132.101 33.1342C132.327 33.3664 132.59 33.5467 132.889 33.6749L132.968 33.4911C132.693 33.3732 132.452 33.2079 132.245 32.9947L132.101 33.1342ZM132.89 33.6752C133.196 33.8036 133.519 33.8676 133.86 33.8676V33.6676C133.545 33.6676 133.248 33.6085 132.968 33.4908L132.89 33.6752ZM133.86 33.8676C134.201 33.8676 134.525 33.8036 134.831 33.6752L134.753 33.4908C134.473 33.6085 134.176 33.6676 133.86 33.6676V33.8676ZM134.831 33.6752C135.136 33.5471 135.402 33.3667 135.628 33.1342L135.485 32.9947C135.278 33.2075 135.034 33.3728 134.753 33.4908L134.831 33.6752ZM135.628 33.1342C135.855 32.9011 136.032 32.6199 136.16 32.2921L135.973 32.2196C135.855 32.5247 135.692 32.7825 135.485 32.9947L135.628 33.1342ZM136.159 32.2936C136.293 31.9639 136.36 31.6023 136.36 31.21H136.16C136.16 31.5794 136.097 31.915 135.974 32.2181L136.159 32.2936ZM149.478 36V36.1H149.578V36H149.478ZM148.898 36L148.817 36.0585L148.847 36.1H148.898V36ZM147.967 34.708L148.048 34.6495L147.983 34.5593L147.9 34.6336L147.967 34.708ZM147.237 35.2881L147.294 35.3701L147.295 35.3698L147.237 35.2881ZM146.437 35.7539L146.479 35.8448L146.48 35.8441L146.437 35.7539ZM145.567 36.0615L145.542 35.9646L145.542 35.9647L145.567 36.0615ZM142.799 35.8418L142.763 35.9352L142.763 35.9353L142.799 35.8418ZM141.269 34.875L141.199 34.9462L141.2 34.9471L141.269 34.875ZM140.241 29.1973L140.333 29.2355L140.333 29.2352L140.241 29.1973ZM141.269 27.6152L141.199 27.5445L141.198 27.545L141.269 27.6152ZM142.799 26.5957L142.837 26.6881L142.837 26.6879L142.799 26.5957ZM147.246 27.1318L147.187 27.213L147.188 27.2136L147.246 27.1318ZM147.967 27.7207L147.898 27.7933L147.975 27.8665L148.043 27.7848L147.967 27.7207ZM148.898 26.6045V26.5045H148.851L148.821 26.5404L148.898 26.6045ZM149.478 26.6045H149.578V26.5045H149.478V26.6045ZM146.868 30.2607L146.775 30.2976L146.776 30.2997L146.868 30.2607ZM146.358 29.4434L146.284 29.5104L146.285 29.5113L146.358 29.4434ZM145.593 28.8721L145.548 28.9612L145.55 28.9622L145.593 28.8721ZM143.739 28.8193L143.703 28.7259L143.703 28.7261L143.739 28.8193ZM142.983 29.3115L142.912 29.2408L142.911 29.2418L142.983 29.3115ZM142.482 30.1201L142.575 30.1564L142.576 30.1558L142.482 30.1201ZM142.482 32.3086L142.389 32.3443L142.389 32.3448L142.482 32.3086ZM142.983 33.1084L142.911 33.1781L142.912 33.1791L142.983 33.1084ZM143.739 33.6006L143.703 33.6938L143.703 33.6941L143.739 33.6006ZM145.593 33.5566L145.637 33.6465L145.638 33.6461L145.593 33.5566ZM146.358 32.9854L146.432 33.0533L146.432 33.0523L146.358 32.9854ZM146.868 32.168L146.776 32.1296L146.775 32.1305L146.868 32.168ZM149.478 35.9H148.898V36.1H149.478V35.9ZM148.979 35.9415L148.048 34.6495L147.885 34.7665L148.817 36.0585L148.979 35.9415ZM147.9 34.6336C147.674 34.836 147.434 35.0269 147.179 35.2063L147.295 35.3698C147.556 35.186 147.802 34.9902 148.033 34.7824L147.9 34.6336ZM147.18 35.2061C146.932 35.3787 146.67 35.5313 146.394 35.6637L146.48 35.8441C146.766 35.707 147.038 35.549 147.294 35.3701L147.18 35.2061ZM146.396 35.663C146.12 35.7894 145.835 35.8899 145.542 35.9646L145.592 36.1584C145.896 36.0808 146.192 35.9762 146.479 35.8448L146.396 35.663ZM145.542 35.9647C145.257 36.0388 144.967 36.0758 144.671 36.0758V36.2758C144.984 36.2758 145.291 36.2366 145.592 36.1583L145.542 35.9647ZM144.671 36.0758C144.02 36.0758 143.408 35.9664 142.834 35.7483L142.763 35.9353C143.361 36.1625 143.997 36.2758 144.671 36.2758V36.0758ZM142.834 35.7484C142.266 35.5305 141.768 35.2153 141.339 34.8029L141.2 34.9471C141.649 35.3784 142.17 35.7078 142.763 35.9352L142.834 35.7484ZM141.339 34.8038C140.916 34.3864 140.581 33.8765 140.333 33.2726L140.148 33.3484C140.405 33.975 140.755 34.5081 141.199 34.9462L141.339 34.8038ZM140.333 33.2726C140.087 32.6714 139.963 31.9844 139.963 31.21H139.763C139.763 32.0058 139.891 32.7192 140.148 33.3484L140.333 33.2726ZM139.963 31.21C139.963 30.4892 140.087 29.8315 140.333 29.2355L140.149 29.1591C139.891 29.7818 139.763 30.4659 139.763 31.21H139.963ZM140.333 29.2352C140.581 28.6311 140.917 28.1149 141.34 27.6855L141.198 27.545C140.755 27.9944 140.405 28.533 140.148 29.1594L140.333 29.2352ZM141.34 27.6859C141.77 27.2559 142.269 26.9234 142.837 26.6881L142.76 26.5033C142.168 26.7485 141.647 27.0957 141.199 27.5445L141.34 27.6859ZM142.837 26.6879C143.41 26.4472 144.021 26.3266 144.671 26.3266V26.1266C143.996 26.1266 143.359 26.252 142.76 26.5035L142.837 26.6879ZM144.671 26.3266C144.967 26.3266 145.26 26.3636 145.551 26.4377L145.601 26.2439C145.294 26.1657 144.984 26.1266 144.671 26.1266V26.3266ZM145.551 26.4377C145.844 26.5122 146.127 26.6155 146.403 26.7474L146.489 26.567C146.202 26.4295 145.906 26.3217 145.601 26.2439L145.551 26.4377ZM146.403 26.7474C146.679 26.8796 146.94 27.0348 147.187 27.213L147.304 27.0507C147.048 26.8656 146.776 26.7044 146.489 26.567L146.403 26.7474ZM147.188 27.2136C147.442 27.3925 147.679 27.5858 147.898 27.7933L148.035 27.6481C147.809 27.4338 147.565 27.2344 147.303 27.0501L147.188 27.2136ZM148.043 27.7848L148.975 26.6686L148.821 26.5404L147.89 27.6566L148.043 27.7848ZM148.898 26.7045H149.478V26.5045H148.898V26.7045ZM149.378 26.6045V36H149.578V26.6045H149.378ZM147.161 31.21C147.161 30.8683 147.094 30.5387 146.96 30.2218L146.776 30.2997C146.9 30.5922 146.961 30.8953 146.961 31.21H147.161ZM146.961 30.2239C146.833 29.9024 146.657 29.6193 146.432 29.3755L146.285 29.5113C146.493 29.7362 146.656 29.998 146.775 30.2976L146.961 30.2239ZM146.432 29.3764C146.207 29.1264 145.941 28.9281 145.637 28.7819L145.55 28.9622C145.831 29.0972 146.076 29.2798 146.284 29.5104L146.432 29.3764ZM145.639 28.783C145.337 28.6292 145.014 28.5523 144.671 28.5523V28.7523C144.983 28.7523 145.275 28.822 145.548 28.9611L145.639 28.783ZM144.671 28.5523C144.331 28.5523 144.008 28.61 143.703 28.7259L143.775 28.9128C144.056 28.806 144.354 28.7523 144.671 28.7523V28.5523ZM143.703 28.7261C143.403 28.8424 143.139 29.0141 142.912 29.2408L143.054 29.3822C143.261 29.1753 143.501 29.0189 143.775 28.9126L143.703 28.7261ZM142.911 29.2418C142.69 29.4696 142.516 29.7512 142.389 30.0844L142.576 30.1558C142.694 29.8445 142.855 29.587 143.055 29.3813L142.911 29.2418ZM142.389 30.0839C142.261 30.414 142.198 30.7899 142.198 31.21H142.398C142.398 30.8097 142.458 30.4591 142.575 30.1564L142.389 30.0839ZM142.198 31.21C142.198 31.6301 142.261 32.0087 142.389 32.3443L142.576 32.2729C142.458 31.964 142.398 31.6102 142.398 31.21H142.198ZM142.389 32.3448C142.516 32.6722 142.69 32.9506 142.911 33.1781L143.055 33.0387C142.854 32.8326 142.694 32.5778 142.575 32.2723L142.389 32.3448ZM142.912 33.1791C143.139 33.4058 143.403 33.5775 143.703 33.6938L143.775 33.5073C143.501 33.401 143.261 33.2446 143.054 33.0377L142.912 33.1791ZM143.703 33.6941C144.008 33.8099 144.331 33.8676 144.671 33.8676V33.6676C144.354 33.6676 144.056 33.6139 143.775 33.5071L143.703 33.6941ZM144.671 33.8676C145.014 33.8676 145.336 33.794 145.637 33.6464L145.549 33.4668C145.276 33.6006 144.984 33.6676 144.671 33.6676V33.8676ZM145.638 33.6461C145.942 33.4943 146.206 33.2967 146.432 33.0533L146.285 32.9174C146.076 33.1427 145.831 33.326 145.549 33.4672L145.638 33.6461ZM146.432 33.0523C146.657 32.8033 146.833 32.5208 146.961 32.2054L146.775 32.1305C146.656 32.4245 146.493 32.6869 146.284 32.9184L146.432 33.0523ZM146.96 32.2063C147.094 31.8839 147.161 31.5516 147.161 31.21H146.961C146.961 31.5246 146.9 31.8309 146.776 32.1296L146.96 32.2063ZM151.359 36H151.259V36.1H151.359V36ZM151.359 33.6094V33.5094H151.259V33.6094H151.359ZM152.229 31.7197L152.157 31.7897L152.158 31.7904L152.229 31.7197ZM151.587 30.7617L151.495 30.8004L151.496 30.8016L151.587 30.7617ZM151.587 28.4238L151.496 28.3839L151.495 28.3852L151.587 28.4238ZM153.178 26.8418L153.217 26.934L153.218 26.9335L153.178 26.8418ZM159.207 26.6045H159.307V26.5045H159.207V26.6045ZM159.207 28.9951V29.0951H159.307V28.9951H159.207ZM153.925 30.0322L153.853 30.1012L153.854 30.1029L153.925 30.0322ZM158.003 30.4189L157.967 30.5122L157.968 30.5127L158.003 30.4189ZM159.594 34.1807L159.686 34.2211L159.686 34.2206L159.594 34.1807ZM158.952 35.1299L159.023 35.2006L159.024 35.1998L158.952 35.1299ZM158.003 35.7715L158.042 35.8637L158.043 35.8632L158.003 35.7715ZM156.843 35.9H151.359V36.1H156.843V35.9ZM151.459 36V33.6094H151.259V36H151.459ZM151.359 33.7094H156.843V33.5094H151.359V33.7094ZM156.843 33.7094C157.034 33.7094 157.2 33.64 157.336 33.5043L157.194 33.3629C157.096 33.4615 156.98 33.5094 156.843 33.5094V33.7094ZM157.336 33.5043C157.471 33.3686 157.541 33.2026 157.541 33.0117H157.341C157.341 33.149 157.293 33.2642 157.194 33.3629L157.336 33.5043ZM157.541 33.0117C157.541 32.8176 157.471 32.6608 157.306 32.5865L157.224 32.7689C157.293 32.8001 157.341 32.866 157.341 33.0117H157.541ZM157.306 32.5865C157.173 32.5266 157.018 32.4986 156.843 32.4986V32.6986C156.997 32.6986 157.123 32.7234 157.224 32.7689L157.306 32.5865ZM156.843 32.4986H154.347V32.6986H156.843V32.4986ZM154.347 32.4986C153.944 32.4986 153.568 32.4221 153.218 32.2696L153.138 32.453C153.515 32.617 153.918 32.6986 154.347 32.6986V32.4986ZM153.218 32.2696C152.866 32.1162 152.56 31.9093 152.3 31.649L152.158 31.7904C152.437 32.0692 152.764 32.29 153.138 32.453L153.218 32.2696ZM152.3 31.6498C152.04 31.3833 151.832 31.0742 151.679 30.7218L151.496 30.8016C151.659 31.1758 151.879 31.5053 152.157 31.7897L152.3 31.6498ZM151.679 30.723C151.533 30.3727 151.459 29.9963 151.459 29.5928H151.259C151.259 30.0213 151.337 30.4242 151.495 30.8004L151.679 30.723ZM151.459 29.5928C151.459 29.1893 151.533 28.8129 151.679 28.4625L151.495 28.3852C151.337 28.7614 151.259 29.1642 151.259 29.5928H151.459ZM151.679 28.4638C151.832 28.1115 152.039 27.8056 152.3 27.5453L152.158 27.4039C151.879 27.6826 151.659 28.0096 151.496 28.3839L151.679 28.4638ZM152.3 27.5453C152.56 27.2853 152.865 27.0815 153.217 26.934L153.139 26.7496C152.765 26.9068 152.437 27.1249 152.158 27.4039L152.3 27.5453ZM153.218 26.9335C153.568 26.781 153.944 26.7045 154.347 26.7045V26.5045C153.918 26.5045 153.515 26.5862 153.138 26.7501L153.218 26.9335ZM154.347 26.7045H159.207V26.5045H154.347V26.7045ZM159.107 26.6045V28.9951H159.307V26.6045H159.107ZM159.207 28.8951H154.347V29.0951H159.207V28.8951ZM154.347 28.8951C154.156 28.8951 153.99 28.9645 153.854 29.1002L153.996 29.2416C154.095 29.143 154.21 29.0951 154.347 29.0951V28.8951ZM153.854 29.1002C153.719 29.2359 153.649 29.4019 153.649 29.5928H153.849C153.849 29.4555 153.897 29.3403 153.996 29.2416L153.854 29.1002ZM153.649 29.5928C153.649 29.7884 153.718 29.9596 153.853 30.1012L153.998 29.9633C153.898 29.8588 153.849 29.737 153.849 29.5928H153.649ZM153.854 30.1029C153.99 30.2387 154.156 30.308 154.347 30.308V30.108C154.21 30.108 154.095 30.0602 153.996 29.9615L153.854 30.1029ZM154.347 30.308H156.843V30.108H154.347V30.308ZM156.843 30.308C157.242 30.308 157.616 30.3763 157.967 30.5122L158.039 30.3257C157.664 30.1804 157.265 30.108 156.843 30.108V30.308ZM157.968 30.5127C158.32 30.6433 158.626 30.8272 158.885 31.0641L159.02 30.9164C158.74 30.6611 158.413 30.4641 158.038 30.3252L157.968 30.5127ZM158.885 31.0641C159.144 31.3007 159.35 31.5855 159.503 31.9195L159.685 31.8363C159.521 31.4789 159.3 31.1719 159.02 30.9164L158.885 31.0641ZM159.503 31.9195C159.655 32.2512 159.731 32.6148 159.731 33.0117H159.931C159.931 32.5884 159.85 32.1961 159.685 31.8363L159.503 31.9195ZM159.731 33.0117C159.731 33.4147 159.655 33.7907 159.502 34.1407L159.686 34.2206C159.85 33.8441 159.931 33.4408 159.931 33.0117H159.731ZM159.503 34.1402C159.349 34.4868 159.142 34.7932 158.881 35.0599L159.024 35.1998C159.302 34.9158 159.523 34.5893 159.686 34.2211L159.503 34.1402ZM158.882 35.0592C158.621 35.3195 158.316 35.5264 157.963 35.6798L158.043 35.8632C158.418 35.7002 158.744 35.4793 159.023 35.2006L158.882 35.0592ZM157.965 35.6793C157.614 35.8263 157.241 35.9 156.843 35.9V36.1C157.266 36.1 157.666 36.0214 158.042 35.8637L157.965 35.6793ZM161.158 36H161.058V36.1H161.158V36ZM161.158 33.6094V33.5094H161.058V33.6094H161.158ZM162.028 31.7197L161.957 31.7897L161.958 31.7904L162.028 31.7197ZM161.387 30.7617L161.294 30.8004L161.295 30.8016L161.387 30.7617ZM161.387 28.4238L161.295 28.3839L161.294 28.3852L161.387 28.4238ZM162.978 26.8418L163.016 26.934L163.017 26.9335L162.978 26.8418ZM169.007 26.6045H169.107V26.5045H169.007V26.6045ZM169.007 28.9951V29.0951H169.107V28.9951H169.007ZM163.725 30.0322L163.652 30.1012L163.654 30.1029L163.725 30.0322ZM167.803 30.4189L167.767 30.5122L167.768 30.5127L167.803 30.4189ZM169.394 34.1807L169.485 34.2211L169.485 34.2206L169.394 34.1807ZM168.752 35.1299L168.823 35.2006L168.823 35.1998L168.752 35.1299ZM167.803 35.7715L167.841 35.8637L167.843 35.8632L167.803 35.7715ZM166.643 35.9H161.158V36.1H166.643V35.9ZM161.258 36V33.6094H161.058V36H161.258ZM161.158 33.7094H166.643V33.5094H161.158V33.7094ZM166.643 33.7094C166.833 33.7094 166.999 33.64 167.135 33.5043L166.994 33.3629C166.895 33.4615 166.78 33.5094 166.643 33.5094V33.7094ZM167.135 33.5043C167.271 33.3686 167.34 33.2026 167.34 33.0117H167.14C167.14 33.149 167.092 33.2642 166.994 33.3629L167.135 33.5043ZM167.34 33.0117C167.34 32.8176 167.271 32.6608 167.105 32.5865L167.023 32.7689C167.093 32.8001 167.14 32.866 167.14 33.0117H167.34ZM167.105 32.5865C166.972 32.5266 166.817 32.4986 166.643 32.4986V32.6986C166.796 32.6986 166.922 32.7234 167.023 32.7689L167.105 32.5865ZM166.643 32.4986H164.146V32.6986H166.643V32.4986ZM164.146 32.4986C163.744 32.4986 163.368 32.4221 163.017 32.2696L162.938 32.453C163.314 32.617 163.717 32.6986 164.146 32.6986V32.4986ZM163.017 32.2696C162.665 32.1162 162.359 31.9093 162.099 31.649L161.958 31.7904C162.236 32.0692 162.563 32.29 162.938 32.453L163.017 32.2696ZM162.1 31.6498C161.839 31.3833 161.632 31.0742 161.478 30.7218L161.295 30.8016C161.458 31.1758 161.679 31.5053 161.957 31.7897L162.1 31.6498ZM161.479 30.723C161.332 30.3727 161.258 29.9963 161.258 29.5928H161.058C161.058 30.0213 161.137 30.4242 161.294 30.8004L161.479 30.723ZM161.258 29.5928C161.258 29.1893 161.332 28.8129 161.479 28.4625L161.294 28.3852C161.137 28.7614 161.058 29.1642 161.058 29.5928H161.258ZM161.478 28.4638C161.632 28.1115 161.839 27.8056 162.099 27.5453L161.958 27.4039C161.679 27.6826 161.458 28.0096 161.295 28.3839L161.478 28.4638ZM162.099 27.5453C162.359 27.2853 162.664 27.0815 163.016 26.934L162.939 26.7496C162.564 26.9068 162.237 27.1249 161.958 27.4039L162.099 27.5453ZM163.017 26.9335C163.368 26.781 163.744 26.7045 164.146 26.7045V26.5045C163.717 26.5045 163.314 26.5862 162.938 26.7501L163.017 26.9335ZM164.146 26.7045H169.007V26.5045H164.146V26.7045ZM168.907 26.6045V28.9951H169.107V26.6045H168.907ZM169.007 28.8951H164.146V29.0951H169.007V28.8951ZM164.146 28.8951C163.956 28.8951 163.79 28.9645 163.654 29.1002L163.795 29.2416C163.894 29.143 164.009 29.0951 164.146 29.0951V28.8951ZM163.654 29.1002C163.518 29.2359 163.449 29.4019 163.449 29.5928H163.649C163.649 29.4555 163.697 29.3403 163.795 29.2416L163.654 29.1002ZM163.449 29.5928C163.449 29.7884 163.517 29.9596 163.652 30.1012L163.797 29.9633C163.698 29.8588 163.649 29.737 163.649 29.5928H163.449ZM163.654 30.1029C163.79 30.2387 163.956 30.308 164.146 30.308V30.108C164.009 30.108 163.894 30.0602 163.795 29.9615L163.654 30.1029ZM164.146 30.308H166.643V30.108H164.146V30.308ZM166.643 30.308C167.041 30.308 167.415 30.3763 167.767 30.5122L167.839 30.3257C167.463 30.1804 167.064 30.108 166.643 30.108V30.308ZM167.768 30.5127C168.12 30.6433 168.425 30.8272 168.685 31.0641L168.819 30.9164C168.54 30.6611 168.212 30.4641 167.838 30.3252L167.768 30.5127ZM168.685 31.0641C168.944 31.3007 169.15 31.5855 169.303 31.9195L169.484 31.8363C169.321 31.4789 169.099 31.1719 168.819 30.9164L168.685 31.0641ZM169.303 31.9195C169.454 32.2512 169.531 32.6148 169.531 33.0117H169.731C169.731 32.5884 169.649 32.1961 169.484 31.8363L169.303 31.9195ZM169.531 33.0117C169.531 33.4147 169.454 33.7907 169.302 34.1407L169.485 34.2206C169.649 33.8441 169.731 33.4408 169.731 33.0117H169.531ZM169.302 34.1402C169.149 34.4868 168.942 34.7932 168.68 35.0599L168.823 35.1998C169.101 34.9158 169.322 34.5893 169.485 34.2211L169.302 34.1402ZM168.681 35.0592C168.421 35.3195 168.115 35.5264 167.763 35.6798L167.843 35.8632C168.217 35.7002 168.544 35.4793 168.823 35.2006L168.681 35.0592ZM167.764 35.6793C167.414 35.8263 167.04 35.9 166.643 35.9V36.1C167.065 36.1 167.465 36.0214 167.841 35.8637L167.764 35.6793Z" fill="white"/>
<path d="M136.821 22H134.404V8.84277H136.821V22ZM148.114 17.21C148.114 17.9131 147.988 18.5693 147.736 19.1787C147.484 19.7822 147.142 20.3066 146.708 20.752C146.274 21.1914 145.765 21.54 145.179 21.7979C144.599 22.0498 143.975 22.1758 143.307 22.1758C142.645 22.1758 142.021 22.0498 141.435 21.7979C140.854 21.54 140.345 21.1914 139.905 20.752C139.472 20.3066 139.129 19.7822 138.877 19.1787C138.625 18.5693 138.499 17.9131 138.499 17.21C138.499 16.4951 138.625 15.833 138.877 15.2236C139.129 14.6143 139.472 14.0898 139.905 13.6504C140.345 13.2051 140.854 12.8564 141.435 12.6045C142.021 12.3525 142.645 12.2266 143.307 12.2266C143.975 12.2266 144.599 12.3467 145.179 12.5869C145.765 12.8213 146.274 13.1582 146.708 13.5977C147.142 14.0312 147.484 14.5557 147.736 15.1709C147.988 15.7803 148.114 16.46 148.114 17.21ZM145.697 17.21C145.697 16.8232 145.633 16.4746 145.504 16.1641C145.381 15.8477 145.211 15.5781 144.994 15.3555C144.777 15.127 144.522 14.9541 144.229 14.8369C143.942 14.7139 143.635 14.6523 143.307 14.6523C142.979 14.6523 142.668 14.7139 142.375 14.8369C142.088 14.9541 141.836 15.127 141.619 15.3555C141.408 15.5781 141.241 15.8477 141.118 16.1641C140.995 16.4746 140.934 16.8232 140.934 17.21C140.934 17.5732 140.995 17.9102 141.118 18.2207C141.241 18.5312 141.408 18.8008 141.619 19.0293C141.836 19.2578 142.088 19.4395 142.375 19.5742C142.668 19.7031 142.979 19.7676 143.307 19.7676C143.635 19.7676 143.942 19.7061 144.229 19.583C144.522 19.46 144.777 19.2871 144.994 19.0645C145.211 18.8418 145.381 18.5723 145.504 18.2559C145.633 17.9395 145.697 17.5908 145.697 17.21ZM161.684 18.5986C161.684 19.0908 161.59 19.5566 161.403 19.9961C161.215 20.4297 160.958 20.8076 160.63 21.1299C160.307 21.4521 159.926 21.707 159.487 21.8945C159.053 22.082 158.588 22.1758 158.089 22.1758C157.644 22.1758 157.216 22.0996 156.806 21.9473C156.396 21.7891 156.024 21.5605 155.69 21.2617C155.362 21.5605 154.993 21.7891 154.583 21.9473C154.178 22.0996 153.751 22.1758 153.299 22.1758C152.801 22.1758 152.336 22.082 151.902 21.8945C151.468 21.707 151.088 21.4521 150.759 21.1299C150.437 20.8076 150.182 20.4297 149.995 19.9961C149.807 19.5566 149.714 19.0908 149.714 18.5986V12.6045H152.113V18.5986C152.113 18.7627 152.142 18.918 152.201 19.0645C152.265 19.2051 152.35 19.3311 152.456 19.4424C152.567 19.5479 152.693 19.6328 152.834 19.6973C152.98 19.7559 153.135 19.7852 153.299 19.7852C153.464 19.7852 153.619 19.7559 153.765 19.6973C153.912 19.6328 154.041 19.5479 154.152 19.4424C154.263 19.3311 154.348 19.2051 154.407 19.0645C154.471 18.918 154.504 18.7627 154.504 18.5986V12.6045H156.894V18.5986C156.894 18.7627 156.926 18.918 156.991 19.0645C157.055 19.2051 157.14 19.3311 157.246 19.4424C157.357 19.5479 157.483 19.6328 157.624 19.6973C157.77 19.7559 157.925 19.7852 158.089 19.7852C158.254 19.7852 158.409 19.7559 158.555 19.6973C158.702 19.6328 158.828 19.5479 158.933 19.4424C159.045 19.3311 159.132 19.2051 159.197 19.0645C159.261 18.918 159.294 18.7627 159.294 18.5986V12.6045H161.684V18.5986Z" fill="white"/>
<path d="M136.821 22V22.1H136.921V22H136.821ZM134.404 22H134.304V22.1H134.404V22ZM134.404 8.84277V8.74277H134.304V8.84277H134.404ZM136.821 8.84277H136.921V8.74277H136.821V8.84277ZM136.821 21.9H134.404V22.1H136.821V21.9ZM134.504 22V8.84277H134.304V22H134.504ZM134.404 8.94277H136.821V8.74277H134.404V8.94277ZM136.721 8.84277V22H136.921V8.84277H136.721ZM147.736 19.1787L147.829 19.2172L147.829 19.2169L147.736 19.1787ZM146.708 20.752L146.779 20.8222L146.78 20.8217L146.708 20.752ZM145.179 21.7979L145.219 21.8896L145.219 21.8894L145.179 21.7979ZM141.435 21.7979L141.394 21.8892L141.395 21.8897L141.435 21.7979ZM139.905 20.752L139.834 20.8217L139.835 20.8227L139.905 20.752ZM138.877 19.1787L138.785 19.2169L138.785 19.2172L138.877 19.1787ZM139.905 13.6504L139.834 13.5801L139.834 13.5802L139.905 13.6504ZM141.435 12.6045L141.395 12.5126L141.395 12.5128L141.435 12.6045ZM145.179 12.5869L145.14 12.6793L145.142 12.6798L145.179 12.5869ZM146.708 13.5977L146.637 13.6679L146.637 13.6684L146.708 13.5977ZM147.736 15.1709L147.644 15.2088L147.644 15.2091L147.736 15.1709ZM145.504 16.1641L145.411 16.2003L145.412 16.2024L145.504 16.1641ZM144.994 15.3555L144.922 15.4243L144.922 15.4252L144.994 15.3555ZM144.229 14.8369L144.19 14.9289L144.192 14.9298L144.229 14.8369ZM142.375 14.8369L142.413 14.9295L142.414 14.9291L142.375 14.8369ZM141.619 15.3555L141.547 15.2866L141.547 15.2867L141.619 15.3555ZM141.118 16.1641L141.211 16.2009L141.211 16.2003L141.118 16.1641ZM141.619 19.0293L141.546 19.0971L141.547 19.0981L141.619 19.0293ZM142.375 19.5742L142.332 19.6648L142.335 19.6658L142.375 19.5742ZM144.229 19.583L144.191 19.4908L144.19 19.4911L144.229 19.583ZM145.504 18.2559L145.411 18.2181L145.411 18.2196L145.504 18.2559ZM148.014 17.21C148.014 17.9009 147.891 18.544 147.644 19.1405L147.829 19.2169C148.086 18.5946 148.214 17.9253 148.214 17.21H148.014ZM147.644 19.1402C147.397 19.7327 147.061 20.2464 146.636 20.6822L146.78 20.8217C147.222 20.3669 147.572 19.8318 147.829 19.2172L147.644 19.1402ZM146.637 20.6817C146.212 21.1119 145.713 21.4534 145.138 21.7063L145.219 21.8894C145.816 21.6267 146.336 21.271 146.779 20.8222L146.637 20.6817ZM145.139 21.7061C144.572 21.9523 143.962 22.0758 143.307 22.0758V22.2758C143.988 22.2758 144.625 22.1473 145.219 21.8896L145.139 21.7061ZM143.307 22.0758C142.658 22.0758 142.047 21.9524 141.474 21.706L141.395 21.8897C141.994 22.1472 142.631 22.2758 143.307 22.2758V22.0758ZM141.475 21.7065C140.906 21.4535 140.407 21.1118 139.976 20.6812L139.835 20.8227C140.283 21.271 140.803 21.6265 141.394 21.8892L141.475 21.7065ZM139.977 20.6822C139.553 20.2464 139.217 19.7327 138.969 19.1402L138.785 19.2172C139.041 19.8318 139.391 20.3669 139.834 20.8217L139.977 20.6822ZM138.969 19.1405C138.723 18.544 138.599 17.9009 138.599 17.21H138.399C138.399 17.9253 138.527 18.5946 138.785 19.2169L138.969 19.1405ZM138.599 17.21C138.599 16.5071 138.723 15.8581 138.969 15.2618L138.785 15.1854C138.527 15.8079 138.399 16.4831 138.399 17.21H138.599ZM138.969 15.2618C139.217 14.6636 139.553 14.1503 139.976 13.7206L139.834 13.5802C139.391 14.0294 139.041 14.5649 138.785 15.1854L138.969 15.2618ZM139.976 13.7206C140.407 13.2845 140.906 12.9431 141.474 12.6962L141.395 12.5128C140.803 12.7698 140.283 13.1256 139.834 13.5801L139.976 13.7206ZM141.474 12.6964C142.047 12.45 142.658 12.3266 143.307 12.3266V12.1266C142.631 12.1266 141.994 12.2551 141.395 12.5126L141.474 12.6964ZM143.307 12.3266C143.962 12.3266 144.573 12.4444 145.14 12.6793L145.217 12.4945C144.624 12.249 143.987 12.1266 143.307 12.1266V12.3266ZM145.142 12.6798C145.715 12.9091 146.213 13.2385 146.637 13.6679L146.779 13.5274C146.336 13.0779 145.814 12.7334 145.216 12.4941L145.142 12.6798ZM146.637 13.6684C147.061 14.0918 147.396 14.6048 147.644 15.2088L147.829 15.133C147.572 14.5065 147.222 13.9707 146.779 13.5269L146.637 13.6684ZM147.644 15.2091C147.89 15.8048 148.014 16.4713 148.014 17.21H148.214C148.214 16.4486 148.086 15.7557 147.829 15.1327L147.644 15.2091ZM145.797 17.21C145.797 16.812 145.731 16.4501 145.596 16.1257L145.412 16.2024C145.535 16.4991 145.597 16.8344 145.597 17.21H145.797ZM145.597 16.1278C145.47 15.8001 145.293 15.5188 145.066 15.2857L144.922 15.4252C145.129 15.6374 145.292 15.8952 145.411 16.2003L145.597 16.1278ZM145.067 15.2866C144.84 15.0476 144.573 14.8666 144.267 14.7441L144.192 14.9298C144.472 15.0416 144.715 15.2063 144.922 15.4243L145.067 15.2866ZM144.269 14.745C143.969 14.6164 143.648 14.5523 143.307 14.5523V14.7523C143.622 14.7523 143.916 14.8114 144.19 14.9288L144.269 14.745ZM143.307 14.5523C142.966 14.5523 142.642 14.6164 142.336 14.7447L142.414 14.9291C142.694 14.8114 142.991 14.7523 143.307 14.7523V14.5523ZM142.337 14.7443C142.037 14.867 141.773 15.048 141.547 15.2866L141.692 15.4243C141.899 15.2059 142.139 15.0412 142.413 14.9295L142.337 14.7443ZM141.547 15.2867C141.326 15.5197 141.152 15.8006 141.025 16.1278L141.211 16.2003C141.33 15.8947 141.491 15.6365 141.692 15.4242L141.547 15.2867ZM141.025 16.1272C140.897 16.4512 140.834 16.8126 140.834 17.21H141.034C141.034 16.8339 141.093 16.498 141.211 16.2009L141.025 16.1272ZM140.834 17.21C140.834 17.5847 140.897 17.9343 141.025 18.2575L141.211 18.1839C141.093 17.886 141.034 17.5617 141.034 17.21H140.834ZM141.025 18.2575C141.152 18.5787 141.326 18.8589 141.546 19.0971L141.693 18.9615C141.491 18.7426 141.33 18.4838 141.211 18.1839L141.025 18.2575ZM141.547 19.0981C141.772 19.3357 142.034 19.5247 142.333 19.6647L142.417 19.4837C142.142 19.3542 141.9 19.1799 141.692 18.9605L141.547 19.0981ZM142.335 19.6658C142.641 19.8004 142.965 19.8676 143.307 19.8676V19.6676C142.992 19.6676 142.695 19.6059 142.415 19.4827L142.335 19.6658ZM143.307 19.8676C143.648 19.8676 143.969 19.8036 144.269 19.6749L144.19 19.4911C143.916 19.6085 143.622 19.6676 143.307 19.6676V19.8676ZM144.268 19.6752C144.573 19.5471 144.839 19.3667 145.066 19.1342L144.922 18.9947C144.715 19.2075 144.472 19.3728 144.191 19.4908L144.268 19.6752ZM145.066 19.1342C145.293 18.9011 145.47 18.6199 145.597 18.2921L145.411 18.2196C145.292 18.5247 145.129 18.7825 144.922 18.9947L145.066 19.1342ZM145.597 18.2936C145.731 17.9639 145.797 17.6023 145.797 17.21H145.597C145.597 17.5794 145.535 17.915 145.411 18.2181L145.597 18.2936ZM161.403 19.9961L161.495 20.0358L161.495 20.0353L161.403 19.9961ZM160.63 21.1299L160.559 21.0585L160.559 21.0592L160.63 21.1299ZM159.487 21.8945L159.448 21.8026L159.447 21.8027L159.487 21.8945ZM156.806 21.9473L156.77 22.0406L156.771 22.041L156.806 21.9473ZM155.69 21.2617L155.757 21.1872L155.689 21.127L155.623 21.1878L155.69 21.2617ZM154.583 21.9473L154.618 22.0408L154.619 22.0406L154.583 21.9473ZM150.759 21.1299L150.689 21.2006L150.689 21.2012L150.759 21.1299ZM149.995 19.9961L149.903 20.0353L149.903 20.0358L149.995 19.9961ZM149.714 12.6045V12.5045H149.614V12.6045H149.714ZM152.113 12.6045H152.213V12.5045H152.113V12.6045ZM152.201 19.0645L152.108 19.1016L152.11 19.1061L152.201 19.0645ZM152.456 19.4424L152.383 19.5113L152.387 19.515L152.456 19.4424ZM152.834 19.6973L152.792 19.7883L152.796 19.7901L152.834 19.6973ZM153.765 19.6973L153.802 19.7902L153.806 19.7888L153.765 19.6973ZM154.152 19.4424L154.221 19.515L154.223 19.5131L154.152 19.4424ZM154.407 19.0645L154.315 19.0242L154.315 19.026L154.407 19.0645ZM154.504 12.6045V12.5045H154.404V12.6045H154.504ZM156.894 12.6045H156.994V12.5045H156.894V12.6045ZM156.991 19.0645L156.899 19.1047L156.9 19.1061L156.991 19.0645ZM157.246 19.4424L157.173 19.5113L157.177 19.515L157.246 19.4424ZM157.624 19.6973L157.582 19.7883L157.587 19.7901L157.624 19.6973ZM158.555 19.6973L158.592 19.7902L158.596 19.7888L158.555 19.6973ZM159.197 19.0645L159.288 19.1061L159.288 19.1047L159.197 19.0645ZM159.294 12.6045V12.5045H159.194V12.6045H159.294ZM161.684 12.6045H161.784V12.5045H161.684V12.6045ZM161.584 18.5986C161.584 19.0777 161.493 19.5302 161.311 19.9569L161.495 20.0353C161.688 19.5831 161.784 19.1039 161.784 18.5986H161.584ZM161.311 19.9564C161.129 20.3785 160.878 20.7456 160.559 21.0585L160.7 21.2012C161.037 20.8697 161.302 20.4809 161.495 20.0358L161.311 19.9564ZM160.559 21.0592C160.246 21.372 159.876 21.6198 159.448 21.8026L159.526 21.9865C159.977 21.7942 160.369 21.5323 160.7 21.2006L160.559 21.0592ZM159.447 21.8027C159.027 21.9845 158.575 22.0758 158.089 22.0758V22.2758C158.6 22.2758 159.08 22.1795 159.527 21.9863L159.447 21.8027ZM158.089 22.0758C157.656 22.0758 157.24 22.0017 156.841 21.8535L156.771 22.041C157.193 22.1976 157.633 22.2758 158.089 22.2758V22.0758ZM156.842 21.854C156.444 21.7002 156.082 21.4781 155.757 21.1872L155.623 21.3362C155.966 21.643 156.349 21.8779 156.77 22.0406L156.842 21.854ZM155.623 21.1878C155.304 21.4784 154.945 21.7003 154.547 21.854L154.619 22.0406C155.04 21.8779 155.42 21.6427 155.757 21.3357L155.623 21.1878ZM154.547 21.8537C154.155 22.0016 153.739 22.0758 153.299 22.0758V22.2758C153.762 22.2758 154.202 22.1976 154.618 22.0408L154.547 21.8537ZM153.299 22.0758C152.814 22.0758 152.362 21.9845 151.942 21.8027L151.862 21.9863C152.309 22.1795 152.789 22.2758 153.299 22.2758V22.0758ZM151.942 21.8027C151.519 21.62 151.149 21.3719 150.829 21.0585L150.689 21.2012C151.026 21.5324 151.418 21.7941 151.862 21.9863L151.942 21.8027ZM150.83 21.0592C150.517 20.7462 150.269 20.3789 150.087 19.9564L149.903 20.0358C150.095 20.4805 150.357 20.8691 150.689 21.2006L150.83 21.0592ZM150.087 19.9569C149.905 19.5302 149.814 19.0777 149.814 18.5986H149.614C149.614 19.1039 149.71 19.5831 149.903 20.0353L150.087 19.9569ZM149.814 18.5986V12.6045H149.614V18.5986H149.814ZM149.714 12.7045H152.113V12.5045H149.714V12.7045ZM152.013 12.6045V18.5986H152.213V12.6045H152.013ZM152.013 18.5986C152.013 18.7749 152.044 18.9428 152.108 19.1016L152.294 19.0273C152.24 18.8931 152.213 18.7505 152.213 18.5986H152.013ZM152.11 19.1061C152.179 19.2566 152.27 19.3918 152.383 19.5112L152.528 19.3736C152.43 19.2703 152.352 19.1535 152.292 19.0228L152.11 19.1061ZM152.387 19.515C152.506 19.6281 152.641 19.7192 152.792 19.7882L152.875 19.6064C152.745 19.5464 152.628 19.4676 152.524 19.3698L152.387 19.515ZM152.796 19.7901C152.955 19.8536 153.123 19.8852 153.299 19.8852V19.6852C153.148 19.6852 153.005 19.6581 152.871 19.6044L152.796 19.7901ZM153.299 19.8852C153.476 19.8852 153.644 19.8536 153.802 19.7901L153.728 19.6044C153.594 19.6581 153.451 19.6852 153.299 19.6852V19.8852ZM153.806 19.7888C153.962 19.7199 154.101 19.6287 154.221 19.515L154.083 19.3698C153.981 19.467 153.861 19.5457 153.725 19.6057L153.806 19.7888ZM154.223 19.5131C154.343 19.3928 154.435 19.256 154.499 19.1029L154.315 19.026C154.261 19.1542 154.184 19.2693 154.081 19.3717L154.223 19.5131ZM154.498 19.1047C154.569 18.9452 154.604 18.7762 154.604 18.5986H154.404C154.404 18.7492 154.374 18.8907 154.315 19.0242L154.498 19.1047ZM154.604 18.5986V12.6045H154.404V18.5986H154.604ZM154.504 12.7045H156.894V12.5045H154.504V12.7045ZM156.794 12.6045V18.5986H156.994V12.6045H156.794ZM156.794 18.5986C156.794 18.7762 156.829 18.9452 156.899 19.1047L157.082 19.0242C157.024 18.8907 156.994 18.7492 156.994 18.5986H156.794ZM156.9 19.1061C156.969 19.2566 157.06 19.3918 157.173 19.5112L157.318 19.3736C157.22 19.2703 157.142 19.1535 157.082 19.0228L156.9 19.1061ZM157.177 19.515C157.296 19.6281 157.431 19.7192 157.582 19.7882L157.665 19.6064C157.535 19.5464 157.418 19.4676 157.315 19.3698L157.177 19.515ZM157.587 19.7901C157.745 19.8536 157.913 19.8852 158.089 19.8852V19.6852C157.938 19.6852 157.795 19.6581 157.661 19.6044L157.587 19.7901ZM158.089 19.8852C158.266 19.8852 158.434 19.8536 158.592 19.7901L158.518 19.6044C158.384 19.6581 158.241 19.6852 158.089 19.6852V19.8852ZM158.596 19.7888C158.753 19.7197 158.889 19.628 159.004 19.5131L158.863 19.3717C158.766 19.4678 158.651 19.5459 158.515 19.6057L158.596 19.7888ZM159.004 19.5131C159.124 19.3935 159.218 19.2577 159.288 19.1061L159.106 19.0228C159.047 19.1524 158.966 19.2686 158.863 19.3717L159.004 19.5131ZM159.288 19.1047C159.359 18.9452 159.394 18.7762 159.394 18.5986H159.194C159.194 18.7492 159.164 18.8907 159.105 19.0242L159.288 19.1047ZM159.394 18.5986V12.6045H159.194V18.5986H159.394ZM159.294 12.7045H161.684V12.5045H159.294V12.7045ZM161.584 12.6045V18.5986H161.784V12.6045H161.584Z" fill="white"/>
<defs>
<filter id="filter0_i_80_1703" x="0" y="0" width="289" height="290" filterUnits="userSpaceOnUse" color-interpolation-filters="sRGB">
<feFlood flood-opacity="0" result="BackgroundImageFix"/>
<feBlend mode="normal" in="SourceGraphic" in2="BackgroundImageFix" result="shape"/>
<feColorMatrix in="SourceAlpha" type="matrix" values="0 0 0 0 0 0 0 0 0 0 0 0 0 0 0 0 0 0 127 0" result="hardAlpha"/>
<feOffset dy="2"/>
<feGaussianBlur stdDeviation="0.5"/>
<feComposite in2="hardAlpha" operator="arithmetic" k2="-1" k3="1"/>
<feColorMatrix type="matrix" values="0 0 0 0 0.4 0 0 0 0 0.411765 0 0 0 0 0.498039 0 0 0 1 0"/>
<feBlend mode="normal" in2="shape" result="effect1_innerShadow_80_1703"/>
</filter>
<filter id="filter1_i_80_1703" x="95.501" y="-10" width="109.726" height="84" filterUnits="userSpaceOnUse" color-interpolation-filters="sRGB">
<feFlood flood-opacity="0" result="BackgroundImageFix"/>
<feBlend mode="normal" in="SourceGraphic" in2="BackgroundImageFix" result="shape"/>
<feColorMatrix in="SourceAlpha" type="matrix" values="0 0 0 0 0 0 0 0 0 0 0 0 0 0 0 0 0 0 127 0" result="hardAlpha"/>
<feOffset dx="10" dy="-10"/>
<feGaussianBlur stdDeviation="7.5"/>
<feComposite in2="hardAlpha" operator="arithmetic" k2="-1" k3="1"/>
<feColorMatrix type="matrix" values="0 0 0 0 1 0 0 0 0 1 0 0 0 0 1 0 0 0 0.4 0"/>
<feBlend mode="normal" in2="shape" result="effect1_innerShadow_80_1703"/>
</filter>
<filter id="filter2_i_80_1703" x="46.7842" y="46.7849" width="195.431" height="196.43" filterUnits="userSpaceOnUse" color-interpolation-filters="sRGB">
<feFlood flood-opacity="0" result="BackgroundImageFix"/>
<feBlend mode="normal" in="SourceGraphic" in2="BackgroundImageFix" result="shape"/>
<feColorMatrix in="SourceAlpha" type="matrix" values="0 0 0 0 0 0 0 0 0 0 0 0 0 0 0 0 0 0 127 0" result="hardAlpha"/>
<feOffset dy="1"/>
<feGaussianBlur stdDeviation="8"/>
<feComposite in2="hardAlpha" operator="arithmetic" k2="-1" k3="1"/>
<feColorMatrix type="matrix" values="0 0 0 0 0 0 0 0 0 0 0 0 0 0 0 0 0 0 0.38 0"/>
<feBlend mode="normal" in2="shape" result="effect1_innerShadow_80_1703"/>
</filter>
<linearGradient id="paint0_linear_80_1703" x1="145" y1="-2" x2="145" y2="68.0625" gradientUnits="userSpaceOnUse">
<stop stop-color="#00D1FF"/>
<stop offset="1" stop-color="#1A55ED"/>
</linearGradient>
</defs>
</svg>
