<svg width="289" height="289" viewBox="0 0 289 289" fill="none" xmlns="http://www.w3.org/2000/svg">
<mask id="mask0_80_1753" style="mask-type:alpha" maskUnits="userSpaceOnUse" x="0" y="0" width="289" height="289">
<circle cx="144.5" cy="144.5" r="144.5" fill="#33384C"/>
<circle cx="144.5" cy="144.5" r="143.5" stroke="#242739" stroke-opacity="0.8" stroke-width="2"/>
</mask>
<g mask="url(#mask0_80_1753)">
<g filter="url(#filter0_i_80_1753)">
<circle cx="144.5" cy="144.5" r="144.5" fill="#2B3041"/>
</g>
<circle cx="144.5" cy="144.5" r="143.5" stroke="#242739" stroke-opacity="0.8" stroke-width="2"/>
<g filter="url(#filter1_i_80_1753)">
<path d="M195.227 9.15479L167.482 74H129.744L95.501 8.51935C110.801 3.00526 127.299 0 144.5 0C162.35 0 179.444 3.23654 195.227 9.15479Z" fill="url(#paint0_linear_80_1753)" fill-opacity="0.8"/>
</g>
<path d="M144.5 0.5C162.104 0.5 178.97 3.6588 194.561 9.44011L167.152 73.5H130.047L96.2101 8.79647C111.305 3.42477 127.56 0.5 144.5 0.5Z" stroke="#1E2133" stroke-opacity="0.75"/>
</g>
<path d="M130.452 39.5859H128.035V26.5869H128.615L129.573 27.7207C129.79 27.5156 130.027 27.3223 130.285 27.1406C130.543 26.959 130.81 26.8037 131.085 26.6748C131.366 26.54 131.656 26.4346 131.955 26.3584C132.254 26.2822 132.556 26.2441 132.86 26.2441C133.523 26.2441 134.144 26.3643 134.724 26.6045C135.31 26.8389 135.819 27.1729 136.253 27.6064C136.692 28.04 137.038 28.5645 137.29 29.1797C137.542 29.7891 137.668 30.4658 137.668 31.21C137.668 31.9834 137.542 32.6807 137.29 33.3018C137.038 33.917 136.692 34.4414 136.253 34.875C135.819 35.3027 135.31 35.6309 134.724 35.8594C134.144 36.0879 133.523 36.2021 132.86 36.2021C132.649 36.2021 132.439 36.1787 132.228 36.1318C132.023 36.085 131.817 36.0234 131.612 35.9473C131.413 35.8652 131.214 35.7744 131.015 35.6748C130.821 35.5752 130.634 35.4727 130.452 35.3672V39.5859ZM135.26 31.21C135.26 30.8115 135.195 30.4541 135.066 30.1377C134.943 29.8213 134.774 29.5547 134.557 29.3379C134.34 29.1152 134.085 28.9453 133.792 28.8281C133.499 28.7109 133.189 28.6523 132.86 28.6523C132.532 28.6523 132.222 28.7109 131.929 28.8281C131.642 28.9453 131.39 29.1152 131.173 29.3379C130.956 29.5547 130.783 29.8213 130.654 30.1377C130.531 30.4541 130.47 30.8115 130.47 31.21C130.47 31.5908 130.531 31.9395 130.654 32.2559C130.783 32.5723 130.956 32.8418 131.173 33.0645C131.39 33.2871 131.642 33.46 131.929 33.583C132.222 33.7061 132.532 33.7676 132.86 33.7676C133.189 33.7676 133.499 33.7061 133.792 33.583C134.085 33.46 134.34 33.2871 134.557 33.0645C134.774 32.8418 134.943 32.5723 135.066 32.2559C135.195 31.9395 135.26 31.5908 135.26 31.21ZM148.478 36H147.898L146.967 34.708C146.738 34.9131 146.495 35.1064 146.237 35.2881C145.985 35.4639 145.718 35.6191 145.437 35.7539C145.156 35.8828 144.866 35.9854 144.567 36.0615C144.274 36.1377 143.975 36.1758 143.671 36.1758C143.009 36.1758 142.384 36.0645 141.799 35.8418C141.218 35.6191 140.709 35.2969 140.269 34.875C139.836 34.4473 139.493 33.9258 139.241 33.3105C138.989 32.6953 138.863 31.9951 138.863 31.21C138.863 30.4775 138.989 29.8066 139.241 29.1973C139.493 28.582 139.836 28.0547 140.269 27.6152C140.709 27.1758 141.218 26.8359 141.799 26.5957C142.384 26.3496 143.009 26.2266 143.671 26.2266C143.975 26.2266 144.277 26.2646 144.576 26.3408C144.875 26.417 145.165 26.5225 145.446 26.6572C145.727 26.792 145.994 26.9502 146.246 27.1318C146.504 27.3135 146.744 27.5098 146.967 27.7207L147.898 26.6045H148.478V36ZM146.061 31.21C146.061 30.8818 145.997 30.5654 145.868 30.2607C145.745 29.9502 145.575 29.6777 145.358 29.4434C145.141 29.2031 144.886 29.0127 144.593 28.8721C144.306 28.7256 143.999 28.6523 143.671 28.6523C143.342 28.6523 143.032 28.708 142.739 28.8193C142.452 28.9307 142.2 29.0947 141.983 29.3115C141.772 29.5283 141.605 29.7979 141.482 30.1201C141.359 30.4365 141.298 30.7998 141.298 31.21C141.298 31.6201 141.359 31.9863 141.482 32.3086C141.605 32.625 141.772 32.8916 141.983 33.1084C142.2 33.3252 142.452 33.4893 142.739 33.6006C143.032 33.7119 143.342 33.7676 143.671 33.7676C143.999 33.7676 144.306 33.6973 144.593 33.5566C144.886 33.4102 145.141 33.2197 145.358 32.9854C145.575 32.7451 145.745 32.4727 145.868 32.168C145.997 31.8574 146.061 31.5381 146.061 31.21ZM155.843 36H150.359V33.6094H155.843C156.007 33.6094 156.148 33.5508 156.265 33.4336C156.382 33.3164 156.441 33.1758 156.441 33.0117C156.441 32.8418 156.382 32.7305 156.265 32.6777C156.148 32.625 156.007 32.5986 155.843 32.5986H153.347C152.931 32.5986 152.541 32.5195 152.178 32.3613C151.815 32.2031 151.498 31.9893 151.229 31.7197C150.959 31.4443 150.745 31.125 150.587 30.7617C150.435 30.3984 150.359 30.0088 150.359 29.5928C150.359 29.1768 150.435 28.7871 150.587 28.4238C150.745 28.0605 150.959 27.7441 151.229 27.4746C151.498 27.2051 151.815 26.9941 152.178 26.8418C152.541 26.6836 152.931 26.6045 153.347 26.6045H158.207V28.9951H153.347C153.183 28.9951 153.042 29.0537 152.925 29.1709C152.808 29.2881 152.749 29.4287 152.749 29.5928C152.749 29.7627 152.808 29.9092 152.925 30.0322C153.042 30.1494 153.183 30.208 153.347 30.208H155.843C156.253 30.208 156.64 30.2783 157.003 30.4189C157.367 30.5537 157.683 30.7441 157.952 30.9902C158.222 31.2363 158.436 31.5322 158.594 31.8779C158.752 32.2236 158.831 32.6016 158.831 33.0117C158.831 33.4277 158.752 33.8174 158.594 34.1807C158.436 34.5381 158.222 34.8545 157.952 35.1299C157.683 35.3994 157.367 35.6133 157.003 35.7715C156.64 35.9238 156.253 36 155.843 36ZM165.643 36H160.158V33.6094H165.643C165.807 33.6094 165.947 33.5508 166.064 33.4336C166.182 33.3164 166.24 33.1758 166.24 33.0117C166.24 32.8418 166.182 32.7305 166.064 32.6777C165.947 32.625 165.807 32.5986 165.643 32.5986H163.146C162.73 32.5986 162.341 32.5195 161.978 32.3613C161.614 32.2031 161.298 31.9893 161.028 31.7197C160.759 31.4443 160.545 31.125 160.387 30.7617C160.234 30.3984 160.158 30.0088 160.158 29.5928C160.158 29.1768 160.234 28.7871 160.387 28.4238C160.545 28.0605 160.759 27.7441 161.028 27.4746C161.298 27.2051 161.614 26.9941 161.978 26.8418C162.341 26.6836 162.73 26.6045 163.146 26.6045H168.007V28.9951H163.146C162.982 28.9951 162.842 29.0537 162.725 29.1709C162.607 29.2881 162.549 29.4287 162.549 29.5928C162.549 29.7627 162.607 29.9092 162.725 30.0322C162.842 30.1494 162.982 30.208 163.146 30.208H165.643C166.053 30.208 166.439 30.2783 166.803 30.4189C167.166 30.5537 167.482 30.7441 167.752 30.9902C168.021 31.2363 168.235 31.5322 168.394 31.8779C168.552 32.2236 168.631 32.6016 168.631 33.0117C168.631 33.4277 168.552 33.8174 168.394 34.1807C168.235 34.5381 168.021 34.8545 167.752 35.1299C167.482 35.3994 167.166 35.6133 166.803 35.7715C166.439 35.9238 166.053 36 165.643 36Z" fill="white"/>
<path d="M130.452 39.5859V39.6859H130.552V39.5859H130.452ZM128.035 39.5859H127.935V39.6859H128.035V39.5859ZM128.035 26.5869V26.4869H127.935V26.5869H128.035ZM128.615 26.5869L128.692 26.5224L128.662 26.4869H128.615V26.5869ZM129.573 27.7207L129.497 27.7852L129.565 27.866L129.642 27.7934L129.573 27.7207ZM131.085 26.6748L131.127 26.7654L131.128 26.765L131.085 26.6748ZM134.724 26.6045L134.685 26.6969L134.687 26.6973L134.724 26.6045ZM136.253 27.6064L136.182 27.6772L136.183 27.6776L136.253 27.6064ZM137.29 29.1797L137.198 29.2176L137.198 29.2179L137.29 29.1797ZM137.29 33.3018L137.383 33.3397L137.383 33.3393L137.29 33.3018ZM136.253 34.875L136.323 34.9462L136.323 34.9462L136.253 34.875ZM134.724 35.8594L134.687 35.7662L134.687 35.7663L134.724 35.8594ZM132.228 36.1318L132.205 36.2293L132.206 36.2295L132.228 36.1318ZM131.612 35.9473L131.574 36.0398L131.578 36.041L131.612 35.9473ZM131.015 35.6748L130.969 35.7637L130.97 35.7642L131.015 35.6748ZM130.452 35.3672L130.502 35.2807L130.352 35.1935V35.3672H130.452ZM135.066 30.1377L134.973 30.1739L134.974 30.1754L135.066 30.1377ZM134.557 29.3379L134.485 29.4077L134.486 29.4086L134.557 29.3379ZM131.929 28.8281L131.892 28.7353L131.891 28.7355L131.929 28.8281ZM131.173 29.3379L131.244 29.4086L131.245 29.4077L131.173 29.3379ZM130.654 30.1377L130.562 30.1L130.561 30.1015L130.654 30.1377ZM130.654 32.2559L130.561 32.2921L130.562 32.2936L130.654 32.2559ZM131.929 33.583L131.889 33.6749L131.89 33.6752L131.929 33.583ZM135.066 32.2559L134.974 32.2181L134.973 32.2196L135.066 32.2559ZM130.452 39.4859H128.035V39.6859H130.452V39.4859ZM128.135 39.5859V26.5869H127.935V39.5859H128.135ZM128.035 26.6869H128.615V26.4869H128.035V26.6869ZM128.539 26.6515L129.497 27.7852L129.65 27.6562L128.692 26.5224L128.539 26.6515ZM129.642 27.7934C129.855 27.5917 130.089 27.4014 130.343 27.2224L130.228 27.0589C129.966 27.2431 129.725 27.4395 129.505 27.6481L129.642 27.7934ZM130.343 27.2224C130.596 27.044 130.858 26.8917 131.127 26.7654L131.043 26.5842C130.762 26.7157 130.49 26.874 130.228 27.0589L130.343 27.2224ZM131.128 26.765C131.404 26.633 131.687 26.5298 131.98 26.4553L131.93 26.2615C131.625 26.3393 131.329 26.447 131.042 26.5846L131.128 26.765ZM131.98 26.4553C132.271 26.3812 132.564 26.3441 132.86 26.3441V26.1441C132.547 26.1441 132.237 26.1833 131.93 26.2615L131.98 26.4553ZM132.86 26.3441C133.51 26.3441 134.118 26.4619 134.685 26.6969L134.762 26.5121C134.169 26.2666 133.535 26.1441 132.86 26.1441V26.3441ZM134.687 26.6973C135.26 26.9268 135.759 27.2534 136.182 27.6772L136.324 27.5357C135.88 27.0923 135.359 26.7509 134.761 26.5116L134.687 26.6973ZM136.183 27.6776C136.612 28.101 136.95 28.6139 137.198 29.2176L137.383 29.1418C137.126 28.515 136.773 27.979 136.323 27.5353L136.183 27.6776ZM137.198 29.2179C137.444 29.8137 137.568 30.4773 137.568 31.21H137.768C137.768 30.4544 137.64 29.7644 137.383 29.1415L137.198 29.2179ZM137.568 31.21C137.568 31.9725 137.444 32.6567 137.197 33.2642L137.383 33.3393C137.64 32.7046 137.768 31.9943 137.768 31.21H137.568ZM137.198 33.2639C136.95 33.8676 136.612 34.3804 136.183 34.8038L136.323 34.9462C136.773 34.5024 137.126 33.9664 137.383 33.3397L137.198 33.2639ZM136.183 34.8038C135.759 35.2217 135.261 35.5425 134.687 35.7662L134.76 35.9525C135.358 35.7192 135.88 35.3838 136.323 34.9462L136.183 34.8038ZM134.687 35.7663C134.119 35.99 133.511 36.1021 132.86 36.1021V36.3021C133.534 36.3021 134.168 36.1858 134.76 35.9524L134.687 35.7663ZM132.86 36.1021C132.657 36.1021 132.453 36.0795 132.249 36.0342L132.206 36.2295C132.424 36.2779 132.642 36.3021 132.86 36.3021V36.1021ZM132.25 36.0343C132.049 35.9885 131.848 35.9282 131.647 35.8535L131.578 36.041C131.787 36.1186 131.996 36.1814 132.205 36.2293L132.25 36.0343ZM131.65 35.8548C131.454 35.7737 131.257 35.6839 131.059 35.5854L130.97 35.7642C131.171 35.8649 131.373 35.9567 131.574 36.0397L131.65 35.8548ZM131.061 35.5859C130.869 35.487 130.683 35.3853 130.502 35.2807L130.402 35.4537C130.585 35.56 130.774 35.6634 130.969 35.7637L131.061 35.5859ZM130.352 35.3672V39.5859H130.552V35.3672H130.352ZM135.36 31.21C135.36 30.8007 135.294 30.4302 135.159 30.1L134.974 30.1754C135.097 30.478 135.16 30.8223 135.16 31.21H135.36ZM135.16 30.1015C135.032 29.7735 134.855 29.4948 134.627 29.2672L134.486 29.4086C134.692 29.6146 134.855 29.8691 134.973 30.1739L135.16 30.1015ZM134.628 29.2681C134.402 29.0353 134.135 28.8576 133.829 28.7353L133.755 28.921C134.035 29.033 134.278 29.1952 134.485 29.4077L134.628 29.2681ZM133.829 28.7353C133.524 28.6132 133.201 28.5523 132.86 28.5523V28.7523C133.176 28.7523 133.474 28.8087 133.755 28.921L133.829 28.7353ZM132.86 28.5523C132.52 28.5523 132.197 28.6132 131.892 28.7353L131.966 28.921C132.247 28.8087 132.545 28.7523 132.86 28.7523V28.5523ZM131.891 28.7355C131.591 28.8579 131.328 29.0356 131.101 29.2681L131.245 29.4077C131.452 29.1948 131.692 29.0327 131.967 28.9207L131.891 28.7355ZM131.102 29.2672C130.875 29.4944 130.695 29.7726 130.562 30.1L130.747 30.1754C130.871 29.8699 131.037 29.615 131.244 29.4086L131.102 29.2672ZM130.561 30.1015C130.433 30.4312 130.37 30.8012 130.37 31.21H130.57C130.57 30.8218 130.63 30.477 130.748 30.1739L130.561 30.1015ZM130.37 31.21C130.37 31.6017 130.433 31.9628 130.561 32.2921L130.748 32.2196C130.63 31.9161 130.57 31.5799 130.57 31.21H130.37ZM130.562 32.2936C130.695 32.6207 130.875 32.9015 131.101 33.1342L131.245 32.9947C131.038 32.7821 130.872 32.5238 130.747 32.2181L130.562 32.2936ZM131.101 33.1342C131.327 33.3664 131.59 33.5467 131.889 33.6749L131.968 33.4911C131.693 33.3732 131.452 33.2079 131.245 32.9947L131.101 33.1342ZM131.89 33.6752C132.196 33.8036 132.519 33.8676 132.86 33.8676V33.6676C132.545 33.6676 132.248 33.6085 131.968 33.4908L131.89 33.6752ZM132.86 33.8676C133.201 33.8676 133.525 33.8036 133.831 33.6752L133.753 33.4908C133.473 33.6085 133.176 33.6676 132.86 33.6676V33.8676ZM133.831 33.6752C134.136 33.5471 134.402 33.3667 134.628 33.1342L134.485 32.9947C134.278 33.2075 134.034 33.3728 133.753 33.4908L133.831 33.6752ZM134.628 33.1342C134.855 32.9011 135.032 32.6199 135.16 32.2921L134.973 32.2196C134.855 32.5247 134.692 32.7825 134.485 32.9947L134.628 33.1342ZM135.159 32.2936C135.293 31.9639 135.36 31.6023 135.36 31.21H135.16C135.16 31.5794 135.097 31.915 134.974 32.2181L135.159 32.2936ZM148.478 36V36.1H148.578V36H148.478ZM147.898 36L147.817 36.0585L147.847 36.1H147.898V36ZM146.967 34.708L147.048 34.6495L146.983 34.5593L146.9 34.6336L146.967 34.708ZM146.237 35.2881L146.294 35.3701L146.295 35.3698L146.237 35.2881ZM145.437 35.7539L145.479 35.8448L145.48 35.8441L145.437 35.7539ZM144.567 36.0615L144.542 35.9646L144.542 35.9647L144.567 36.0615ZM141.799 35.8418L141.763 35.9352L141.763 35.9353L141.799 35.8418ZM140.269 34.875L140.199 34.9462L140.2 34.9471L140.269 34.875ZM139.241 29.1973L139.333 29.2355L139.333 29.2352L139.241 29.1973ZM140.269 27.6152L140.199 27.5445L140.198 27.545L140.269 27.6152ZM141.799 26.5957L141.837 26.6881L141.837 26.6879L141.799 26.5957ZM146.246 27.1318L146.187 27.213L146.188 27.2136L146.246 27.1318ZM146.967 27.7207L146.898 27.7933L146.975 27.8665L147.043 27.7848L146.967 27.7207ZM147.898 26.6045V26.5045H147.851L147.821 26.5404L147.898 26.6045ZM148.478 26.6045H148.578V26.5045H148.478V26.6045ZM145.868 30.2607L145.775 30.2976L145.776 30.2997L145.868 30.2607ZM145.358 29.4434L145.284 29.5104L145.285 29.5113L145.358 29.4434ZM144.593 28.8721L144.548 28.9612L144.55 28.9622L144.593 28.8721ZM142.739 28.8193L142.703 28.7259L142.703 28.7261L142.739 28.8193ZM141.983 29.3115L141.912 29.2408L141.911 29.2418L141.983 29.3115ZM141.482 30.1201L141.575 30.1564L141.576 30.1558L141.482 30.1201ZM141.482 32.3086L141.389 32.3443L141.389 32.3448L141.482 32.3086ZM141.983 33.1084L141.911 33.1781L141.912 33.1791L141.983 33.1084ZM142.739 33.6006L142.703 33.6938L142.703 33.6941L142.739 33.6006ZM144.593 33.5566L144.637 33.6465L144.638 33.6461L144.593 33.5566ZM145.358 32.9854L145.432 33.0533L145.432 33.0523L145.358 32.9854ZM145.868 32.168L145.776 32.1296L145.775 32.1305L145.868 32.168ZM148.478 35.9H147.898V36.1H148.478V35.9ZM147.979 35.9415L147.048 34.6495L146.885 34.7665L147.817 36.0585L147.979 35.9415ZM146.9 34.6336C146.674 34.836 146.434 35.0269 146.179 35.2063L146.295 35.3698C146.556 35.186 146.802 34.9902 147.033 34.7824L146.9 34.6336ZM146.18 35.2061C145.932 35.3787 145.67 35.5313 145.394 35.6637L145.48 35.8441C145.766 35.707 146.038 35.549 146.294 35.3701L146.18 35.2061ZM145.396 35.663C145.12 35.7894 144.835 35.8899 144.542 35.9646L144.592 36.1584C144.896 36.0808 145.192 35.9762 145.479 35.8448L145.396 35.663ZM144.542 35.9647C144.257 36.0388 143.967 36.0758 143.671 36.0758V36.2758C143.984 36.2758 144.291 36.2366 144.592 36.1583L144.542 35.9647ZM143.671 36.0758C143.02 36.0758 142.408 35.9664 141.834 35.7483L141.763 35.9353C142.361 36.1625 142.997 36.2758 143.671 36.2758V36.0758ZM141.834 35.7484C141.266 35.5305 140.768 35.2153 140.339 34.8029L140.2 34.9471C140.649 35.3784 141.17 35.7078 141.763 35.9352L141.834 35.7484ZM140.339 34.8038C139.916 34.3864 139.581 33.8765 139.333 33.2726L139.148 33.3484C139.405 33.975 139.755 34.5081 140.199 34.9462L140.339 34.8038ZM139.333 33.2726C139.087 32.6714 138.963 31.9844 138.963 31.21H138.763C138.763 32.0058 138.891 32.7192 139.148 33.3484L139.333 33.2726ZM138.963 31.21C138.963 30.4892 139.087 29.8315 139.333 29.2355L139.149 29.1591C138.891 29.7818 138.763 30.4659 138.763 31.21H138.963ZM139.333 29.2352C139.581 28.6311 139.917 28.1149 140.34 27.6855L140.198 27.545C139.755 27.9944 139.405 28.533 139.148 29.1594L139.333 29.2352ZM140.34 27.6859C140.77 27.2559 141.269 26.9234 141.837 26.6881L141.76 26.5033C141.168 26.7485 140.647 27.0957 140.199 27.5445L140.34 27.6859ZM141.837 26.6879C142.41 26.4472 143.021 26.3266 143.671 26.3266V26.1266C142.996 26.1266 142.359 26.252 141.76 26.5035L141.837 26.6879ZM143.671 26.3266C143.967 26.3266 144.26 26.3636 144.551 26.4377L144.601 26.2439C144.294 26.1657 143.984 26.1266 143.671 26.1266V26.3266ZM144.551 26.4377C144.844 26.5122 145.127 26.6155 145.403 26.7474L145.489 26.567C145.202 26.4295 144.906 26.3217 144.601 26.2439L144.551 26.4377ZM145.403 26.7474C145.679 26.8796 145.94 27.0348 146.187 27.213L146.304 27.0507C146.048 26.8656 145.776 26.7044 145.489 26.567L145.403 26.7474ZM146.188 27.2136C146.442 27.3925 146.679 27.5858 146.898 27.7933L147.035 27.6481C146.809 27.4338 146.565 27.2344 146.303 27.0501L146.188 27.2136ZM147.043 27.7848L147.975 26.6686L147.821 26.5404L146.89 27.6566L147.043 27.7848ZM147.898 26.7045H148.478V26.5045H147.898V26.7045ZM148.378 26.6045V36H148.578V26.6045H148.378ZM146.161 31.21C146.161 30.8683 146.094 30.5387 145.96 30.2218L145.776 30.2997C145.9 30.5922 145.961 30.8953 145.961 31.21H146.161ZM145.961 30.2239C145.833 29.9024 145.657 29.6193 145.432 29.3755L145.285 29.5113C145.493 29.7362 145.656 29.998 145.775 30.2976L145.961 30.2239ZM145.432 29.3764C145.207 29.1264 144.941 28.9281 144.637 28.7819L144.55 28.9622C144.831 29.0972 145.076 29.2798 145.284 29.5104L145.432 29.3764ZM144.639 28.783C144.337 28.6292 144.014 28.5523 143.671 28.5523V28.7523C143.983 28.7523 144.275 28.822 144.548 28.9611L144.639 28.783ZM143.671 28.5523C143.331 28.5523 143.008 28.61 142.703 28.7259L142.775 28.9128C143.056 28.806 143.354 28.7523 143.671 28.7523V28.5523ZM142.703 28.7261C142.403 28.8424 142.139 29.0141 141.912 29.2408L142.054 29.3822C142.261 29.1753 142.501 29.0189 142.775 28.9126L142.703 28.7261ZM141.911 29.2418C141.69 29.4696 141.516 29.7512 141.389 30.0844L141.576 30.1558C141.694 29.8445 141.855 29.587 142.055 29.3813L141.911 29.2418ZM141.389 30.0839C141.261 30.414 141.198 30.7899 141.198 31.21H141.398C141.398 30.8097 141.458 30.4591 141.575 30.1564L141.389 30.0839ZM141.198 31.21C141.198 31.6301 141.261 32.0087 141.389 32.3443L141.576 32.2729C141.458 31.964 141.398 31.6102 141.398 31.21H141.198ZM141.389 32.3448C141.516 32.6722 141.69 32.9506 141.911 33.1781L142.055 33.0387C141.854 32.8326 141.694 32.5778 141.575 32.2723L141.389 32.3448ZM141.912 33.1791C142.139 33.4058 142.403 33.5775 142.703 33.6938L142.775 33.5073C142.501 33.401 142.261 33.2446 142.054 33.0377L141.912 33.1791ZM142.703 33.6941C143.008 33.8099 143.331 33.8676 143.671 33.8676V33.6676C143.354 33.6676 143.056 33.6139 142.775 33.5071L142.703 33.6941ZM143.671 33.8676C144.014 33.8676 144.336 33.794 144.637 33.6464L144.549 33.4668C144.276 33.6006 143.984 33.6676 143.671 33.6676V33.8676ZM144.638 33.6461C144.942 33.4943 145.206 33.2967 145.432 33.0533L145.285 32.9174C145.076 33.1427 144.831 33.326 144.549 33.4672L144.638 33.6461ZM145.432 33.0523C145.657 32.8033 145.833 32.5208 145.961 32.2054L145.775 32.1305C145.656 32.4245 145.493 32.6869 145.284 32.9184L145.432 33.0523ZM145.96 32.2063C146.094 31.8839 146.161 31.5516 146.161 31.21H145.961C145.961 31.5246 145.9 31.8309 145.776 32.1296L145.96 32.2063ZM150.359 36H150.259V36.1H150.359V36ZM150.359 33.6094V33.5094H150.259V33.6094H150.359ZM151.229 31.7197L151.157 31.7897L151.158 31.7904L151.229 31.7197ZM150.587 30.7617L150.495 30.8004L150.496 30.8016L150.587 30.7617ZM150.587 28.4238L150.496 28.3839L150.495 28.3852L150.587 28.4238ZM152.178 26.8418L152.217 26.934L152.218 26.9335L152.178 26.8418ZM158.207 26.6045H158.307V26.5045H158.207V26.6045ZM158.207 28.9951V29.0951H158.307V28.9951H158.207ZM152.925 30.0322L152.853 30.1012L152.854 30.1029L152.925 30.0322ZM157.003 30.4189L156.967 30.5122L156.968 30.5127L157.003 30.4189ZM158.594 34.1807L158.686 34.2211L158.686 34.2206L158.594 34.1807ZM157.952 35.1299L158.023 35.2006L158.024 35.1998L157.952 35.1299ZM157.003 35.7715L157.042 35.8637L157.043 35.8632L157.003 35.7715ZM155.843 35.9H150.359V36.1H155.843V35.9ZM150.459 36V33.6094H150.259V36H150.459ZM150.359 33.7094H155.843V33.5094H150.359V33.7094ZM155.843 33.7094C156.034 33.7094 156.2 33.64 156.336 33.5043L156.194 33.3629C156.096 33.4615 155.98 33.5094 155.843 33.5094V33.7094ZM156.336 33.5043C156.471 33.3686 156.541 33.2026 156.541 33.0117H156.341C156.341 33.149 156.293 33.2642 156.194 33.3629L156.336 33.5043ZM156.541 33.0117C156.541 32.8176 156.471 32.6608 156.306 32.5865L156.224 32.7689C156.293 32.8001 156.341 32.866 156.341 33.0117H156.541ZM156.306 32.5865C156.173 32.5266 156.018 32.4986 155.843 32.4986V32.6986C155.997 32.6986 156.123 32.7234 156.224 32.7689L156.306 32.5865ZM155.843 32.4986H153.347V32.6986H155.843V32.4986ZM153.347 32.4986C152.944 32.4986 152.568 32.4221 152.218 32.2696L152.138 32.453C152.515 32.617 152.918 32.6986 153.347 32.6986V32.4986ZM152.218 32.2696C151.866 32.1162 151.56 31.9093 151.3 31.649L151.158 31.7904C151.437 32.0692 151.764 32.29 152.138 32.453L152.218 32.2696ZM151.3 31.6498C151.04 31.3833 150.832 31.0742 150.679 30.7218L150.496 30.8016C150.659 31.1758 150.879 31.5053 151.157 31.7897L151.3 31.6498ZM150.679 30.723C150.533 30.3727 150.459 29.9963 150.459 29.5928H150.259C150.259 30.0213 150.337 30.4242 150.495 30.8004L150.679 30.723ZM150.459 29.5928C150.459 29.1893 150.533 28.8129 150.679 28.4625L150.495 28.3852C150.337 28.7614 150.259 29.1642 150.259 29.5928H150.459ZM150.679 28.4638C150.832 28.1115 151.039 27.8056 151.3 27.5453L151.158 27.4039C150.879 27.6826 150.659 28.0096 150.496 28.3839L150.679 28.4638ZM151.3 27.5453C151.56 27.2853 151.865 27.0815 152.217 26.934L152.139 26.7496C151.765 26.9068 151.437 27.1249 151.158 27.4039L151.3 27.5453ZM152.218 26.9335C152.568 26.781 152.944 26.7045 153.347 26.7045V26.5045C152.918 26.5045 152.515 26.5862 152.138 26.7501L152.218 26.9335ZM153.347 26.7045H158.207V26.5045H153.347V26.7045ZM158.107 26.6045V28.9951H158.307V26.6045H158.107ZM158.207 28.8951H153.347V29.0951H158.207V28.8951ZM153.347 28.8951C153.156 28.8951 152.99 28.9645 152.854 29.1002L152.996 29.2416C153.095 29.143 153.21 29.0951 153.347 29.0951V28.8951ZM152.854 29.1002C152.719 29.2359 152.649 29.4019 152.649 29.5928H152.849C152.849 29.4555 152.897 29.3403 152.996 29.2416L152.854 29.1002ZM152.649 29.5928C152.649 29.7884 152.718 29.9596 152.853 30.1012L152.998 29.9633C152.898 29.8588 152.849 29.737 152.849 29.5928H152.649ZM152.854 30.1029C152.99 30.2387 153.156 30.308 153.347 30.308V30.108C153.21 30.108 153.095 30.0602 152.996 29.9615L152.854 30.1029ZM153.347 30.308H155.843V30.108H153.347V30.308ZM155.843 30.308C156.242 30.308 156.616 30.3763 156.967 30.5122L157.039 30.3257C156.664 30.1804 156.265 30.108 155.843 30.108V30.308ZM156.968 30.5127C157.32 30.6433 157.626 30.8272 157.885 31.0641L158.02 30.9164C157.74 30.6611 157.413 30.4641 157.038 30.3252L156.968 30.5127ZM157.885 31.0641C158.144 31.3007 158.35 31.5855 158.503 31.9195L158.685 31.8363C158.521 31.4789 158.3 31.1719 158.02 30.9164L157.885 31.0641ZM158.503 31.9195C158.655 32.2512 158.731 32.6148 158.731 33.0117H158.931C158.931 32.5884 158.85 32.1961 158.685 31.8363L158.503 31.9195ZM158.731 33.0117C158.731 33.4147 158.655 33.7907 158.502 34.1407L158.686 34.2206C158.85 33.8441 158.931 33.4408 158.931 33.0117H158.731ZM158.503 34.1402C158.349 34.4868 158.142 34.7932 157.881 35.0599L158.024 35.1998C158.302 34.9158 158.523 34.5893 158.686 34.2211L158.503 34.1402ZM157.882 35.0592C157.621 35.3195 157.316 35.5264 156.963 35.6798L157.043 35.8632C157.418 35.7002 157.744 35.4793 158.023 35.2006L157.882 35.0592ZM156.965 35.6793C156.614 35.8263 156.241 35.9 155.843 35.9V36.1C156.266 36.1 156.666 36.0214 157.042 35.8637L156.965 35.6793ZM160.158 36H160.058V36.1H160.158V36ZM160.158 33.6094V33.5094H160.058V33.6094H160.158ZM161.028 31.7197L160.957 31.7897L160.958 31.7904L161.028 31.7197ZM160.387 30.7617L160.294 30.8004L160.295 30.8016L160.387 30.7617ZM160.387 28.4238L160.295 28.3839L160.294 28.3852L160.387 28.4238ZM161.978 26.8418L162.016 26.934L162.017 26.9335L161.978 26.8418ZM168.007 26.6045H168.107V26.5045H168.007V26.6045ZM168.007 28.9951V29.0951H168.107V28.9951H168.007ZM162.725 30.0322L162.652 30.1012L162.654 30.1029L162.725 30.0322ZM166.803 30.4189L166.767 30.5122L166.768 30.5127L166.803 30.4189ZM168.394 34.1807L168.485 34.2211L168.485 34.2206L168.394 34.1807ZM167.752 35.1299L167.823 35.2006L167.823 35.1998L167.752 35.1299ZM166.803 35.7715L166.841 35.8637L166.843 35.8632L166.803 35.7715ZM165.643 35.9H160.158V36.1H165.643V35.9ZM160.258 36V33.6094H160.058V36H160.258ZM160.158 33.7094H165.643V33.5094H160.158V33.7094ZM165.643 33.7094C165.833 33.7094 165.999 33.64 166.135 33.5043L165.994 33.3629C165.895 33.4615 165.78 33.5094 165.643 33.5094V33.7094ZM166.135 33.5043C166.271 33.3686 166.34 33.2026 166.34 33.0117H166.14C166.14 33.149 166.092 33.2642 165.994 33.3629L166.135 33.5043ZM166.34 33.0117C166.34 32.8176 166.271 32.6608 166.105 32.5865L166.023 32.7689C166.093 32.8001 166.14 32.866 166.14 33.0117H166.34ZM166.105 32.5865C165.972 32.5266 165.817 32.4986 165.643 32.4986V32.6986C165.796 32.6986 165.922 32.7234 166.023 32.7689L166.105 32.5865ZM165.643 32.4986H163.146V32.6986H165.643V32.4986ZM163.146 32.4986C162.744 32.4986 162.368 32.4221 162.017 32.2696L161.938 32.453C162.314 32.617 162.717 32.6986 163.146 32.6986V32.4986ZM162.017 32.2696C161.665 32.1162 161.359 31.9093 161.099 31.649L160.958 31.7904C161.236 32.0692 161.563 32.29 161.938 32.453L162.017 32.2696ZM161.1 31.6498C160.839 31.3833 160.632 31.0742 160.478 30.7218L160.295 30.8016C160.458 31.1758 160.679 31.5053 160.957 31.7897L161.1 31.6498ZM160.479 30.723C160.332 30.3727 160.258 29.9963 160.258 29.5928H160.058C160.058 30.0213 160.137 30.4242 160.294 30.8004L160.479 30.723ZM160.258 29.5928C160.258 29.1893 160.332 28.8129 160.479 28.4625L160.294 28.3852C160.137 28.7614 160.058 29.1642 160.058 29.5928H160.258ZM160.478 28.4638C160.632 28.1115 160.839 27.8056 161.099 27.5453L160.958 27.4039C160.679 27.6826 160.458 28.0096 160.295 28.3839L160.478 28.4638ZM161.099 27.5453C161.359 27.2853 161.664 27.0815 162.016 26.934L161.939 26.7496C161.564 26.9068 161.237 27.1249 160.958 27.4039L161.099 27.5453ZM162.017 26.9335C162.368 26.781 162.744 26.7045 163.146 26.7045V26.5045C162.717 26.5045 162.314 26.5862 161.938 26.7501L162.017 26.9335ZM163.146 26.7045H168.007V26.5045H163.146V26.7045ZM167.907 26.6045V28.9951H168.107V26.6045H167.907ZM168.007 28.8951H163.146V29.0951H168.007V28.8951ZM163.146 28.8951C162.956 28.8951 162.79 28.9645 162.654 29.1002L162.795 29.2416C162.894 29.143 163.009 29.0951 163.146 29.0951V28.8951ZM162.654 29.1002C162.518 29.2359 162.449 29.4019 162.449 29.5928H162.649C162.649 29.4555 162.697 29.3403 162.795 29.2416L162.654 29.1002ZM162.449 29.5928C162.449 29.7884 162.517 29.9596 162.652 30.1012L162.797 29.9633C162.698 29.8588 162.649 29.737 162.649 29.5928H162.449ZM162.654 30.1029C162.79 30.2387 162.956 30.308 163.146 30.308V30.108C163.009 30.108 162.894 30.0602 162.795 29.9615L162.654 30.1029ZM163.146 30.308H165.643V30.108H163.146V30.308ZM165.643 30.308C166.041 30.308 166.415 30.3763 166.767 30.5122L166.839 30.3257C166.463 30.1804 166.064 30.108 165.643 30.108V30.308ZM166.768 30.5127C167.12 30.6433 167.425 30.8272 167.685 31.0641L167.819 30.9164C167.54 30.6611 167.212 30.4641 166.838 30.3252L166.768 30.5127ZM167.685 31.0641C167.944 31.3007 168.15 31.5855 168.303 31.9195L168.484 31.8363C168.321 31.4789 168.099 31.1719 167.819 30.9164L167.685 31.0641ZM168.303 31.9195C168.454 32.2512 168.531 32.6148 168.531 33.0117H168.731C168.731 32.5884 168.649 32.1961 168.484 31.8363L168.303 31.9195ZM168.531 33.0117C168.531 33.4147 168.454 33.7907 168.302 34.1407L168.485 34.2206C168.649 33.8441 168.731 33.4408 168.731 33.0117H168.531ZM168.302 34.1402C168.149 34.4868 167.942 34.7932 167.68 35.0599L167.823 35.1998C168.101 34.9158 168.322 34.5893 168.485 34.2211L168.302 34.1402ZM167.681 35.0592C167.421 35.3195 167.115 35.5264 166.763 35.6798L166.843 35.8632C167.217 35.7002 167.544 35.4793 167.823 35.2006L167.681 35.0592ZM166.764 35.6793C166.414 35.8263 166.04 35.9 165.643 35.9V36.1C166.065 36.1 166.465 36.0214 166.841 35.8637L166.764 35.6793Z" fill="white"/>
<path d="M132.546 22H130.147V8.84277H132.546V13C132.833 12.7832 133.129 12.6309 133.434 12.543C133.738 12.4492 134.049 12.4023 134.365 12.4023C134.945 12.4023 135.49 12.5137 136 12.7363C136.51 12.9531 136.952 13.2549 137.327 13.6416C137.708 14.0225 138.007 14.4707 138.224 14.9863C138.446 15.4961 138.558 16.041 138.558 16.6211V22H136.141V16.6211H136.158C136.158 16.375 136.111 16.1436 136.018 15.9268C135.924 15.7041 135.795 15.5107 135.631 15.3467C135.467 15.1826 135.276 15.0537 135.06 14.96C134.843 14.8662 134.611 14.8193 134.365 14.8193C134.113 14.8193 133.876 14.8662 133.653 14.96C133.431 15.0537 133.237 15.1826 133.073 15.3467C132.909 15.5107 132.78 15.7041 132.687 15.9268C132.593 16.1436 132.546 16.375 132.546 16.6211V22ZM143.462 10.0293C143.462 10.252 143.418 10.46 143.33 10.6533C143.248 10.8467 143.133 11.0166 142.987 11.1631C142.841 11.3037 142.668 11.418 142.468 11.5059C142.275 11.5879 142.067 11.6289 141.844 11.6289C141.622 11.6289 141.411 11.5879 141.212 11.5059C141.018 11.418 140.848 11.3037 140.702 11.1631C140.561 11.0166 140.447 10.8467 140.359 10.6533C140.277 10.46 140.236 10.252 140.236 10.0293C140.236 9.8125 140.277 9.60742 140.359 9.41406C140.447 9.21484 140.561 9.04492 140.702 8.9043C140.848 8.75781 141.018 8.64355 141.212 8.56152C141.411 8.47363 141.622 8.42969 141.844 8.42969C142.067 8.42969 142.275 8.47363 142.468 8.56152C142.668 8.64355 142.841 8.75781 142.987 8.9043C143.133 9.04492 143.248 9.21484 143.33 9.41406C143.418 9.60742 143.462 9.8125 143.462 10.0293ZM143.049 22H140.632V12.5869H143.049V22ZM151.943 17.21C151.943 16.8818 151.878 16.5654 151.749 16.2607C151.626 15.9502 151.456 15.6777 151.24 15.4434C151.023 15.2031 150.768 15.0127 150.475 14.8721C150.188 14.7256 149.88 14.6523 149.552 14.6523C149.224 14.6523 148.913 14.708 148.62 14.8193C148.333 14.9307 148.081 15.0947 147.865 15.3115C147.654 15.5283 147.487 15.7979 147.364 16.1201C147.241 16.4365 147.179 16.7998 147.179 17.21C147.179 17.6025 147.241 17.957 147.364 18.2734C147.487 18.584 147.654 18.8506 147.865 19.0732C148.081 19.2959 148.333 19.4688 148.62 19.5918C148.913 19.709 149.224 19.7676 149.552 19.7676C149.88 19.7676 150.188 19.6973 150.475 19.5566C150.768 19.4102 151.023 19.2197 151.24 18.9854C151.456 18.7451 151.626 18.4727 151.749 18.168C151.878 17.8574 151.943 17.5381 151.943 17.21ZM154.36 20.8135C154.36 21.4756 154.234 22.0967 153.982 22.6768C153.73 23.2568 153.384 23.7637 152.945 24.1973C152.511 24.6309 152.001 24.9736 151.415 25.2256C150.835 25.4775 150.214 25.6035 149.552 25.6035L148.348 25.5859V23.1865L149.534 23.2041C149.909 23.2041 150.229 23.1543 150.492 23.0547C150.756 22.9609 150.979 22.8291 151.16 22.6592C151.342 22.4951 151.486 22.3047 151.591 22.0879C151.702 21.8711 151.79 21.6426 151.855 21.4023C151.761 21.5547 151.626 21.6807 151.451 21.7803C151.275 21.874 151.078 21.9502 150.862 22.0088C150.651 22.0732 150.428 22.1172 150.194 22.1406C149.965 22.1641 149.751 22.1758 149.552 22.1758C148.89 22.1758 148.266 22.0615 147.68 21.833C147.1 21.6045 146.59 21.2793 146.151 20.8574C145.717 20.4297 145.374 19.9082 145.122 19.293C144.87 18.6777 144.744 17.9834 144.744 17.21C144.744 16.501 144.87 15.8418 145.122 15.2324C145.374 14.623 145.717 14.0957 146.151 13.6504C146.59 13.2051 147.1 12.8564 147.68 12.6045C148.266 12.3525 148.89 12.2266 149.552 12.2266C149.857 12.2266 150.159 12.2646 150.457 12.3408C150.756 12.417 151.046 12.5225 151.327 12.6572C151.609 12.792 151.875 12.9502 152.127 13.1318C152.385 13.3135 152.625 13.5098 152.848 13.7207L153.78 12.6045H154.36V20.8135ZM158.956 22H156.557V8.84277H158.956V13C159.243 12.7832 159.539 12.6309 159.844 12.543C160.148 12.4492 160.459 12.4023 160.775 12.4023C161.355 12.4023 161.9 12.5137 162.41 12.7363C162.92 12.9531 163.362 13.2549 163.737 13.6416C164.118 14.0225 164.417 14.4707 164.634 14.9863C164.856 15.4961 164.968 16.041 164.968 16.6211V22H162.551V16.6211H162.568C162.568 16.375 162.521 16.1436 162.428 15.9268C162.334 15.7041 162.205 15.5107 162.041 15.3467C161.877 15.1826 161.686 15.0537 161.47 14.96C161.253 14.8662 161.021 14.8193 160.775 14.8193C160.523 14.8193 160.286 14.8662 160.063 14.96C159.841 15.0537 159.647 15.1826 159.483 15.3467C159.319 15.5107 159.19 15.7041 159.097 15.9268C159.003 16.1436 158.956 16.375 158.956 16.6211V22Z" fill="white"/>
<path d="M132.546 22V22.1H132.646V22H132.546ZM130.147 22H130.047V22.1H130.147V22ZM130.147 8.84277V8.74277H130.047V8.84277H130.147ZM132.546 8.84277H132.646V8.74277H132.546V8.84277ZM132.546 13H132.446V13.2008L132.606 13.0798L132.546 13ZM133.434 12.543L133.461 12.6391L133.463 12.6385L133.434 12.543ZM136 12.7363L135.96 12.828L135.961 12.8284L136 12.7363ZM137.327 13.6416L137.255 13.7112L137.256 13.7123L137.327 13.6416ZM138.224 14.9863L138.131 15.0251L138.132 15.0264L138.224 14.9863ZM138.558 22V22.1H138.658V22H138.558ZM136.141 22H136.041V22.1H136.141V22ZM136.141 16.6211V16.5211H136.041V16.6211H136.141ZM136.158 16.6211V16.7211H136.258V16.6211H136.158ZM136.018 15.9268L135.925 15.9656L135.926 15.9664L136.018 15.9268ZM132.687 15.9268L132.778 15.9665L132.779 15.9656L132.687 15.9268ZM132.546 21.9H130.147V22.1H132.546V21.9ZM130.247 22V8.84277H130.047V22H130.247ZM130.147 8.94277H132.546V8.74277H130.147V8.94277ZM132.446 8.84277V13H132.646V8.84277H132.446ZM132.606 13.0798C132.885 12.8694 133.17 12.7231 133.461 12.6391L133.406 12.4469C133.088 12.5386 132.781 12.697 132.486 12.9202L132.606 13.0798ZM133.463 12.6385C133.758 12.5477 134.059 12.5023 134.365 12.5023V12.3023C134.039 12.3023 133.718 12.3507 133.404 12.4474L133.463 12.6385ZM134.365 12.5023C134.932 12.5023 135.463 12.6111 135.96 12.828L136.04 12.6447C135.517 12.4163 134.959 12.3023 134.365 12.3023V12.5023ZM135.961 12.8284C136.459 13.0401 136.89 13.3343 137.255 13.7112L137.399 13.572C137.014 13.1754 136.561 12.8662 136.039 12.6443L135.961 12.8284ZM137.256 13.7123C137.628 14.0837 137.92 14.5209 138.131 15.0251L138.316 14.9476C138.094 14.4205 137.788 13.9613 137.398 13.5709L137.256 13.7123ZM138.132 15.0264C138.349 15.523 138.458 16.0542 138.458 16.6211H138.658C138.658 16.0278 138.544 15.4692 138.315 14.9463L138.132 15.0264ZM138.458 16.6211V22H138.658V16.6211H138.458ZM138.558 21.9H136.141V22.1H138.558V21.9ZM136.241 22V16.6211H136.041V22H136.241ZM136.141 16.7211H136.158V16.5211H136.141V16.7211ZM136.258 16.6211C136.258 16.3619 136.209 16.1169 136.109 15.8871L135.926 15.9664C136.014 16.1702 136.058 16.3881 136.058 16.6211H136.258ZM136.11 15.888C136.011 15.6539 135.875 15.4496 135.702 15.276L135.56 15.4174C135.715 15.5719 135.837 15.7543 135.925 15.9656L136.11 15.888ZM135.702 15.276C135.528 15.1028 135.327 14.9668 135.099 14.8682L135.02 15.0517C135.225 15.1406 135.405 15.2624 135.56 15.4174L135.702 15.276ZM135.099 14.8682C134.869 14.7688 134.624 14.7193 134.365 14.7193V14.9193C134.598 14.9193 134.816 14.9636 135.02 15.0517L135.099 14.8682ZM134.365 14.7193C134.101 14.7193 133.85 14.7687 133.615 14.8678L133.692 15.0521C133.902 14.9638 134.126 14.9193 134.365 14.9193V14.7193ZM133.615 14.8678C133.38 14.9664 133.176 15.1024 133.003 15.276L133.144 15.4174C133.299 15.2629 133.481 15.1411 133.692 15.0521L133.615 14.8678ZM133.003 15.276C132.829 15.4496 132.693 15.6539 132.594 15.888L132.779 15.9656C132.868 15.7543 132.989 15.5719 133.144 15.4174L133.003 15.276ZM132.595 15.8871C132.495 16.1169 132.446 16.3619 132.446 16.6211H132.646C132.646 16.3881 132.69 16.1702 132.778 15.9664L132.595 15.8871ZM132.446 16.6211V22H132.646V16.6211H132.446ZM143.33 10.6533L143.239 10.6119L143.238 10.6143L143.33 10.6533ZM142.987 11.1631L143.056 11.2352L143.058 11.2338L142.987 11.1631ZM142.468 11.5059L142.507 11.5979L142.509 11.5974L142.468 11.5059ZM141.212 11.5059L141.17 11.597L141.174 11.5983L141.212 11.5059ZM140.702 11.1631L140.63 11.2324L140.633 11.2352L140.702 11.1631ZM140.359 10.6533L140.267 10.6924L140.268 10.6947L140.359 10.6533ZM140.359 9.41406L140.268 9.37369L140.267 9.37501L140.359 9.41406ZM141.212 8.56152L141.251 8.65359L141.252 8.65302L141.212 8.56152ZM142.468 8.56152L142.427 8.65262L142.43 8.65399L142.468 8.56152ZM142.987 8.9043L142.916 8.97502L142.918 8.97644L142.987 8.9043ZM143.33 9.41406L143.237 9.45216L143.239 9.45544L143.33 9.41406ZM143.049 22V22.1H143.149V22H143.049ZM140.632 22H140.532V22.1H140.632V22ZM140.632 12.5869V12.4869H140.532V12.5869H140.632ZM143.049 12.5869H143.149V12.4869H143.049V12.5869ZM143.362 10.0293C143.362 10.2384 143.32 10.4322 143.239 10.6119L143.421 10.6947C143.515 10.4877 143.562 10.2655 143.562 10.0293H143.362ZM143.238 10.6143C143.161 10.796 143.054 10.9551 142.916 11.0924L143.058 11.2338C143.213 11.0781 143.335 10.8974 143.422 10.6924L143.238 10.6143ZM142.918 11.0909C142.78 11.2229 142.617 11.3308 142.428 11.4144L142.509 11.5974C142.718 11.5051 142.901 11.3845 143.056 11.2352L142.918 11.0909ZM142.429 11.4138C142.249 11.4903 142.054 11.5289 141.844 11.5289V11.7289C142.08 11.7289 142.301 11.6855 142.507 11.5979L142.429 11.4138ZM141.844 11.5289C141.634 11.5289 141.436 11.4903 141.25 11.4134L141.174 11.5983C141.385 11.6855 141.609 11.7289 141.844 11.7289V11.5289ZM141.253 11.4148C141.069 11.3314 140.909 11.2234 140.771 11.0909L140.633 11.2352C140.788 11.384 140.967 11.5045 141.17 11.5969L141.253 11.4148ZM140.774 11.0938C140.642 10.9559 140.534 10.7955 140.45 10.6119L140.268 10.6947C140.36 10.8979 140.481 11.0773 140.63 11.2323L140.774 11.0938ZM140.451 10.6143C140.375 10.434 140.336 10.2394 140.336 10.0293H140.136C140.136 10.2646 140.179 10.4859 140.267 10.6924L140.451 10.6143ZM140.336 10.0293C140.336 9.82548 140.374 9.63372 140.451 9.45312L140.267 9.37501C140.18 9.58112 140.136 9.79952 140.136 10.0293H140.336ZM140.451 9.45443C140.534 9.26545 140.641 9.10609 140.773 8.97501L140.631 8.83359C140.481 8.98375 140.36 9.16424 140.268 9.3737L140.451 9.45443ZM140.773 8.97501C140.91 8.83773 141.069 8.73067 141.251 8.65358L141.173 8.46947C140.968 8.55644 140.787 8.67789 140.631 8.83359L140.773 8.97501ZM141.252 8.65302C141.438 8.57086 141.635 8.52969 141.844 8.52969V8.32969C141.608 8.32969 141.383 8.3764 141.171 8.47003L141.252 8.65302ZM141.844 8.52969C142.053 8.52969 142.247 8.57086 142.427 8.65256L142.51 8.47049C142.303 8.3764 142.081 8.32969 141.844 8.32969V8.52969ZM142.43 8.65399C142.618 8.7312 142.78 8.83823 142.916 8.97501L143.058 8.83359C142.902 8.67739 142.717 8.55591 142.507 8.46906L142.43 8.65399ZM142.918 8.97644C143.054 9.10686 143.16 9.26497 143.237 9.45214L143.422 9.37599C143.335 9.16472 143.213 8.98298 143.056 8.83216L142.918 8.97644ZM143.239 9.45544C143.321 9.63553 143.362 9.82647 143.362 10.0293H143.562C143.562 9.79853 143.515 9.57931 143.421 9.37268L143.239 9.45544ZM143.049 21.9H140.632V22.1H143.049V21.9ZM140.732 22V12.5869H140.532V22H140.732ZM140.632 12.6869H143.049V12.4869H140.632V12.6869ZM142.949 12.5869V22H143.149V12.5869H142.949ZM151.749 16.2607L151.656 16.2976L151.657 16.2997L151.749 16.2607ZM151.24 15.4434L151.165 15.5104L151.166 15.5113L151.24 15.4434ZM150.475 14.8721L150.429 14.9612L150.432 14.9622L150.475 14.8721ZM148.62 14.8193L148.585 14.7259L148.584 14.7261L148.62 14.8193ZM147.865 15.3115L147.794 15.2408L147.793 15.2418L147.865 15.3115ZM147.364 16.1201L147.457 16.1564L147.457 16.1558L147.364 16.1201ZM147.364 18.2734L147.27 18.3097L147.271 18.3103L147.364 18.2734ZM147.865 19.0732L147.792 19.142L147.793 19.143L147.865 19.0732ZM148.62 19.5918L148.581 19.6837L148.583 19.6846L148.62 19.5918ZM150.475 19.5566L150.519 19.6465L150.52 19.6461L150.475 19.5566ZM151.24 18.9854L151.313 19.0533L151.314 19.0523L151.24 18.9854ZM151.749 18.168L151.657 18.1296L151.657 18.1305L151.749 18.168ZM152.945 24.1973L152.874 24.1261L152.874 24.1266L152.945 24.1973ZM151.415 25.2256L151.376 25.1337L151.376 25.1339L151.415 25.2256ZM149.552 25.6035L149.551 25.7035H149.552V25.6035ZM148.348 25.5859H148.248V25.6845L148.347 25.6859L148.348 25.5859ZM148.348 23.1865L148.349 23.0865L148.248 23.085V23.1865H148.348ZM149.534 23.2041L149.533 23.3041H149.534V23.2041ZM150.493 23.0547L150.459 22.9604L150.457 22.9611L150.493 23.0547ZM151.16 22.6592L151.093 22.585L151.092 22.5862L151.16 22.6592ZM151.591 22.0879L151.502 22.0422L151.501 22.0441L151.591 22.0879ZM151.855 21.4023L151.951 21.4283L151.77 21.3499L151.855 21.4023ZM151.451 21.7803L151.498 21.8685L151.5 21.8673L151.451 21.7803ZM150.862 22.0088L150.836 21.9122L150.832 21.9132L150.862 22.0088ZM150.194 22.1406L150.184 22.0411L150.183 22.0411L150.194 22.1406ZM147.68 21.833L147.643 21.926L147.644 21.9262L147.68 21.833ZM146.151 20.8574L146.08 20.9286L146.081 20.9296L146.151 20.8574ZM146.151 13.6504L146.08 13.5801L146.079 13.5806L146.151 13.6504ZM147.68 12.6045L147.64 12.5126L147.64 12.5128L147.68 12.6045ZM152.127 13.1318L152.069 13.213L152.07 13.2136L152.127 13.1318ZM152.848 13.7207L152.779 13.7933L152.857 13.8665L152.925 13.7848L152.848 13.7207ZM153.78 12.6045V12.5045H153.733L153.703 12.5404L153.78 12.6045ZM154.36 12.6045H154.46V12.5045H154.36V12.6045ZM152.043 17.21C152.043 16.8683 151.976 16.5387 151.841 16.2218L151.657 16.2997C151.781 16.5922 151.843 16.8953 151.843 17.21H152.043ZM151.842 16.2239C151.715 15.9024 151.539 15.6193 151.313 15.3755L151.166 15.5113C151.374 15.7362 151.538 15.998 151.656 16.2976L151.842 16.2239ZM151.314 15.3764C151.088 15.1264 150.823 14.9281 150.518 14.7819L150.432 14.9622C150.713 15.0972 150.957 15.2798 151.165 15.5104L151.314 15.3764ZM150.52 14.783C150.219 14.6292 149.896 14.5523 149.552 14.5523V14.7523C149.865 14.7523 150.157 14.822 150.429 14.9611L150.52 14.783ZM149.552 14.5523C149.212 14.5523 148.89 14.61 148.585 14.7259L148.656 14.9128C148.937 14.806 149.236 14.7523 149.552 14.7523V14.5523ZM148.584 14.7261C148.284 14.8424 148.021 15.0141 147.794 15.2408L147.935 15.3822C148.142 15.1753 148.382 15.0189 148.657 14.9126L148.584 14.7261ZM147.793 15.2418C147.571 15.4696 147.397 15.7512 147.27 16.0844L147.457 16.1558C147.576 15.8445 147.736 15.587 147.936 15.3813L147.793 15.2418ZM147.27 16.0839C147.142 16.414 147.079 16.7899 147.079 17.21H147.279C147.279 16.8097 147.339 16.4591 147.457 16.1564L147.27 16.0839ZM147.079 17.21C147.079 17.613 147.142 17.9801 147.27 18.3097L147.457 18.2372C147.339 17.934 147.279 17.5921 147.279 17.21H147.079ZM147.271 18.3103C147.398 18.6316 147.572 18.9093 147.792 19.142L147.937 19.0045C147.736 18.7919 147.575 18.5364 147.457 18.2366L147.271 18.3103ZM147.793 19.143C148.019 19.3751 148.282 19.5555 148.581 19.6837L148.66 19.4999C148.385 19.382 148.144 19.2167 147.936 19.0035L147.793 19.143ZM148.583 19.6846C148.889 19.8067 149.212 19.8676 149.552 19.8676V19.6676C149.236 19.6676 148.938 19.6112 148.658 19.4989L148.583 19.6846ZM149.552 19.8676C149.895 19.8676 150.218 19.794 150.519 19.6464L150.431 19.4668C150.158 19.6006 149.865 19.6676 149.552 19.6676V19.8676ZM150.52 19.6461C150.823 19.4943 151.088 19.2967 151.313 19.0533L151.166 18.9174C150.958 19.1427 150.713 19.326 150.43 19.4672L150.52 19.6461ZM151.314 19.0523C151.539 18.8033 151.715 18.5208 151.842 18.2054L151.657 18.1305C151.538 18.4245 151.374 18.6869 151.165 18.9184L151.314 19.0523ZM151.842 18.2063C151.976 17.8839 152.043 17.5516 152.043 17.21H151.843C151.843 17.5246 151.781 17.8309 151.657 18.1296L151.842 18.2063ZM154.26 20.8135C154.26 21.4625 154.136 22.07 153.89 22.6369L154.073 22.7166C154.331 22.1234 154.46 21.4886 154.46 20.8135H154.26ZM153.89 22.6369C153.643 23.2056 153.305 23.7017 152.874 24.1261L153.015 24.2684C153.464 23.8257 153.817 23.3081 154.073 22.7166L153.89 22.6369ZM152.874 24.1266C152.45 24.5508 151.951 24.8866 151.376 25.1337L151.455 25.3175C152.052 25.0607 152.572 24.7109 153.015 24.268L152.874 24.1266ZM151.376 25.1339C150.809 25.3801 150.201 25.5035 149.552 25.5035V25.7035C150.227 25.7035 150.862 25.575 151.455 25.3173L151.376 25.1339ZM149.554 25.5035L148.349 25.4859L148.347 25.6859L149.551 25.7035L149.554 25.5035ZM148.448 25.5859V23.1865H148.248V25.5859H148.448ZM148.346 23.2865L149.533 23.3041L149.536 23.1041L148.349 23.0865L148.346 23.2865ZM149.534 23.3041C149.918 23.3041 150.25 23.2533 150.528 23.1482L150.457 22.9611C150.208 23.0553 149.901 23.1041 149.534 23.1041V23.3041ZM150.526 23.1489C150.801 23.0511 151.036 22.9126 151.229 22.7322L151.092 22.5862C150.922 22.7456 150.711 22.8707 150.459 22.9605L150.526 23.1489ZM151.227 22.7334C151.419 22.5609 151.57 22.3601 151.681 22.1316L151.501 22.0441C151.401 22.2492 151.266 22.4294 151.093 22.585L151.227 22.7334ZM151.68 22.1336C151.795 21.9103 151.885 21.6752 151.951 21.4283L151.758 21.3764C151.696 21.61 151.61 21.8318 151.502 22.0422L151.68 22.1336ZM151.77 21.3499C151.686 21.4861 151.564 21.6009 151.401 21.6933L151.5 21.8673C151.688 21.7604 151.836 21.6232 151.94 21.4548L151.77 21.3499ZM151.403 21.692C151.235 21.7818 151.046 21.8554 150.836 21.9123L150.888 22.1053C151.111 22.045 151.314 21.9662 151.498 21.8685L151.403 21.692ZM150.832 21.9132C150.628 21.9756 150.412 22.0183 150.184 22.0411L150.204 22.2401C150.444 22.2161 150.673 22.1709 150.891 22.1044L150.832 21.9132ZM150.183 22.0411C149.958 22.0643 149.747 22.0758 149.552 22.0758V22.2758C149.755 22.2758 149.972 22.2638 150.204 22.2401L150.183 22.0411ZM149.552 22.0758C148.902 22.0758 148.29 21.9636 147.716 21.7398L147.644 21.9262C148.242 22.1594 148.878 22.2758 149.552 22.2758V22.0758ZM147.717 21.74C147.148 21.5161 146.65 21.1979 146.22 20.7853L146.081 20.9296C146.531 21.3607 147.051 21.6929 147.643 21.926L147.717 21.74ZM146.221 20.7862C145.798 20.3688 145.462 19.859 145.215 19.2551L145.03 19.3309C145.286 19.9574 145.636 20.4906 146.08 20.9286L146.221 20.7862ZM145.215 19.2551C144.969 18.6537 144.844 17.9725 144.844 17.21H144.644C144.644 17.9943 144.772 18.7018 145.03 19.3309L145.215 19.2551ZM144.844 17.21C144.844 16.5131 144.968 15.867 145.215 15.2706L145.03 15.1942C144.773 15.8166 144.644 16.4889 144.644 17.21H144.844ZM145.215 15.2706C145.462 14.6723 145.798 14.1558 146.222 13.7202L146.079 13.5806C145.636 14.0356 145.286 14.5738 145.03 15.1942L145.215 15.2706ZM146.222 13.7206C146.652 13.2845 147.151 12.9431 147.72 12.6962L147.64 12.5128C147.048 12.7698 146.528 13.1256 146.08 13.5801L146.222 13.7206ZM147.72 12.6964C148.292 12.45 148.903 12.3266 149.552 12.3266V12.1266C148.877 12.1266 148.239 12.2551 147.64 12.5126L147.72 12.6964ZM149.552 12.3266C149.848 12.3266 150.142 12.3636 150.433 12.4377L150.482 12.2439C150.175 12.1657 149.865 12.1266 149.552 12.1266V12.3266ZM150.433 12.4377C150.725 12.5122 151.009 12.6155 151.284 12.7474L151.371 12.567C151.084 12.4295 150.787 12.3217 150.482 12.2439L150.433 12.4377ZM151.284 12.7474C151.56 12.8796 151.822 13.0348 152.069 13.213L152.186 13.0507C151.929 12.8656 151.657 12.7044 151.371 12.567L151.284 12.7474ZM152.07 13.2136C152.324 13.3925 152.56 13.5858 152.779 13.7933L152.917 13.6481C152.69 13.4338 152.447 13.2344 152.185 13.0501L152.07 13.2136ZM152.925 13.7848L153.856 12.6686L153.703 12.5404L152.771 13.6566L152.925 13.7848ZM153.78 12.7045H154.36V12.5045H153.78V12.7045ZM154.26 12.6045V20.8135H154.46V12.6045H154.26ZM158.956 22V22.1H159.056V22H158.956ZM156.557 22H156.457V22.1H156.557V22ZM156.557 8.84277V8.74277H156.457V8.84277H156.557ZM158.956 8.84277H159.056V8.74277H158.956V8.84277ZM158.956 13H158.856V13.2008L159.016 13.0798L158.956 13ZM159.844 12.543L159.871 12.6391L159.873 12.6385L159.844 12.543ZM162.41 12.7363L162.37 12.828L162.371 12.8284L162.41 12.7363ZM163.737 13.6416L163.665 13.7112L163.667 13.7123L163.737 13.6416ZM164.634 14.9863L164.542 15.0251L164.542 15.0264L164.634 14.9863ZM164.968 22V22.1H165.068V22H164.968ZM162.551 22H162.451V22.1H162.551V22ZM162.551 16.6211V16.5211H162.451V16.6211H162.551ZM162.568 16.6211V16.7211H162.668V16.6211H162.568ZM162.428 15.9268L162.336 15.9656L162.336 15.9664L162.428 15.9268ZM159.097 15.9268L159.188 15.9665L159.189 15.9656L159.097 15.9268ZM158.956 21.9H156.557V22.1H158.956V21.9ZM156.657 22V8.84277H156.457V22H156.657ZM156.557 8.94277H158.956V8.74277H156.557V8.94277ZM158.856 8.84277V13H159.056V8.84277H158.856ZM159.016 13.0798C159.295 12.8694 159.58 12.7231 159.871 12.6391L159.816 12.4469C159.498 12.5386 159.191 12.697 158.896 12.9202L159.016 13.0798ZM159.873 12.6385C160.168 12.5477 160.469 12.5023 160.775 12.5023V12.3023C160.449 12.3023 160.128 12.3507 159.814 12.4474L159.873 12.6385ZM160.775 12.5023C161.342 12.5023 161.873 12.6111 162.37 12.828L162.45 12.6447C161.927 12.4163 161.369 12.3023 160.775 12.3023V12.5023ZM162.371 12.8284C162.869 13.0401 163.3 13.3343 163.665 13.7112L163.809 13.572C163.425 13.1754 162.971 12.8662 162.449 12.6443L162.371 12.8284ZM163.667 13.7123C164.038 14.0837 164.33 14.5209 164.542 15.0251L164.726 14.9476C164.504 14.4205 164.198 13.9613 163.808 13.5709L163.667 13.7123ZM164.542 15.0264C164.759 15.523 164.868 16.0542 164.868 16.6211H165.068C165.068 16.0278 164.954 15.4692 164.725 14.9463L164.542 15.0264ZM164.868 16.6211V22H165.068V16.6211H164.868ZM164.968 21.9H162.551V22.1H164.968V21.9ZM162.651 22V16.6211H162.451V22H162.651ZM162.551 16.7211H162.568V16.5211H162.551V16.7211ZM162.668 16.6211C162.668 16.3619 162.619 16.1169 162.519 15.8871L162.336 15.9664C162.424 16.1702 162.468 16.3881 162.468 16.6211H162.668ZM162.52 15.888C162.421 15.6539 162.285 15.4496 162.112 15.276L161.97 15.4174C162.125 15.5719 162.247 15.7543 162.336 15.9656L162.52 15.888ZM162.112 15.276C161.939 15.1028 161.738 14.9668 161.509 14.8682L161.43 15.0517C161.635 15.1406 161.815 15.2624 161.97 15.4174L162.112 15.276ZM161.509 14.8682C161.28 14.7688 161.035 14.7193 160.775 14.7193V14.9193C161.008 14.9193 161.226 14.9636 161.43 15.0517L161.509 14.8682ZM160.775 14.7193C160.511 14.7193 160.26 14.7687 160.025 14.8678L160.102 15.0521C160.312 14.9638 160.536 14.9193 160.775 14.9193V14.7193ZM160.025 14.8678C159.791 14.9664 159.586 15.1024 159.413 15.276L159.554 15.4174C159.709 15.2629 159.891 15.1411 160.102 15.0521L160.025 14.8678ZM159.413 15.276C159.239 15.4496 159.103 15.6539 159.004 15.888L159.189 15.9656C159.278 15.7543 159.4 15.5719 159.554 15.4174L159.413 15.276ZM159.005 15.8871C158.905 16.1169 158.856 16.3619 158.856 16.6211H159.056C159.056 16.3881 159.1 16.1702 159.188 15.9664L159.005 15.8871ZM158.856 16.6211V22H159.056V16.6211H158.856Z" fill="white"/>
<g filter="url(#filter2_i_80_1753)">
<circle cx="144.499" cy="144.5" r="97.7152" fill="#25293B"/>
</g>
<defs>
<filter id="filter0_i_80_1753" x="0" y="0" width="289" height="290" filterUnits="userSpaceOnUse" color-interpolation-filters="sRGB">
<feFlood flood-opacity="0" result="BackgroundImageFix"/>
<feBlend mode="normal" in="SourceGraphic" in2="BackgroundImageFix" result="shape"/>
<feColorMatrix in="SourceAlpha" type="matrix" values="0 0 0 0 0 0 0 0 0 0 0 0 0 0 0 0 0 0 127 0" result="hardAlpha"/>
<feOffset dy="2"/>
<feGaussianBlur stdDeviation="0.5"/>
<feComposite in2="hardAlpha" operator="arithmetic" k2="-1" k3="1"/>
<feColorMatrix type="matrix" values="0 0 0 0 0.4 0 0 0 0 0.411765 0 0 0 0 0.498039 0 0 0 1 0"/>
<feBlend mode="normal" in2="shape" result="effect1_innerShadow_80_1753"/>
</filter>
<filter id="filter1_i_80_1753" x="85.501" y="-10" width="109.726" height="84" filterUnits="userSpaceOnUse" color-interpolation-filters="sRGB">
<feFlood flood-opacity="0" result="BackgroundImageFix"/>
<feBlend mode="normal" in="SourceGraphic" in2="BackgroundImageFix" result="shape"/>
<feColorMatrix in="SourceAlpha" type="matrix" values="0 0 0 0 0 0 0 0 0 0 0 0 0 0 0 0 0 0 127 0" result="hardAlpha"/>
<feOffset dx="-10" dy="-10"/>
<feGaussianBlur stdDeviation="7.5"/>
<feComposite in2="hardAlpha" operator="arithmetic" k2="-1" k3="1"/>
<feColorMatrix type="matrix" values="0 0 0 0 1 0 0 0 0 1 0 0 0 0 1 0 0 0 0.4 0"/>
<feBlend mode="normal" in2="shape" result="effect1_innerShadow_80_1753"/>
</filter>
<filter id="filter2_i_80_1753" x="46.7842" y="46.7849" width="195.431" height="196.43" filterUnits="userSpaceOnUse" color-interpolation-filters="sRGB">
<feFlood flood-opacity="0" result="BackgroundImageFix"/>
<feBlend mode="normal" in="SourceGraphic" in2="BackgroundImageFix" result="shape"/>
<feColorMatrix in="SourceAlpha" type="matrix" values="0 0 0 0 0 0 0 0 0 0 0 0 0 0 0 0 0 0 127 0" result="hardAlpha"/>
<feOffset dy="1"/>
<feGaussianBlur stdDeviation="8"/>
<feComposite in2="hardAlpha" operator="arithmetic" k2="-1" k3="1"/>
<feColorMatrix type="matrix" values="0 0 0 0 0 0 0 0 0 0 0 0 0 0 0 0 0 0 0.38 0"/>
<feBlend mode="normal" in2="shape" result="effect1_innerShadow_80_1753"/>
</filter>
<linearGradient id="paint0_linear_80_1753" x1="145" y1="-2" x2="145" y2="68.0625" gradientUnits="userSpaceOnUse">
<stop stop-color="#00FF29"/>
<stop offset="1" stop-color="#A9FF75"/>
</linearGradient>
</defs>
</svg>
